STARTFONT 2.1
COMMENT
COMMENT Converted from OpenType font "PixeloidMono.otf" by "otf2bdf 3.0".
COMMENT
FONT -FreeType-Pixeloid Mono-Medium-R-Normal--8-60-100-100-P-53-ISO10646-1
SIZE 6 100 100
FONTBOUNDINGBOX 6 11 -1 -2
STARTPROPERTIES 19
FOUNDRY "FreeType"
FAMILY_NAME "Pixeloid Mono"
WEIGHT_NAME "Medium"
SLANT "R"
SETWIDTH_NAME "Normal"
ADD_STYLE_NAME ""
PIXEL_SIZE 8
POINT_SIZE 60
RESOLUTION_X 100
RESOLUTION_Y 100
SPACING "P"
AVERAGE_WIDTH 53
CHARSET_REGISTRY "ISO10646"
CHARSET_ENCODING "1"
FONT_ASCENT 8
FONT_DESCENT 1
COPYRIGHT "© 2020-2021 GGBot"
_OTF_FONTFILE "PixeloidMono.otf"
_OTF_PSNAME "PixeloidMono"
ENDPROPERTIES
CHARS 835
STARTCHAR 0020
ENCODING 32
SWIDTH 720 0
DWIDTH 6 0
BBX 0 0 0 0
BITMAP
ENDCHAR
STARTCHAR 0021
ENCODING 33
SWIDTH 720 0
DWIDTH 6 0
BBX 1 7 2 0
BITMAP
80
80
80
80
80
00
80
ENDCHAR
STARTCHAR 0022
ENCODING 34
SWIDTH 720 0
DWIDTH 6 0
BBX 3 2 1 5
BITMAP
A0
A0
ENDCHAR
STARTCHAR 0023
ENCODING 35
SWIDTH 720 0
DWIDTH 6 0
BBX 5 7 0 0
BITMAP
50
F8
50
50
50
F8
50
ENDCHAR
STARTCHAR 0024
ENCODING 36
SWIDTH 720 0
DWIDTH 6 0
BBX 5 9 0 -1
BITMAP
20
70
A8
A0
70
28
A8
70
20
ENDCHAR
STARTCHAR 0025
ENCODING 37
SWIDTH 720 0
DWIDTH 6 0
BBX 5 7 0 0
BITMAP
C8
C8
10
20
40
98
98
ENDCHAR
STARTCHAR 0026
ENCODING 38
SWIDTH 720 0
DWIDTH 6 0
BBX 5 7 0 0
BITMAP
40
A0
A0
40
A8
90
68
ENDCHAR
STARTCHAR 0027
ENCODING 39
SWIDTH 720 0
DWIDTH 6 0
BBX 1 2 2 5
BITMAP
80
80
ENDCHAR
STARTCHAR 0028
ENCODING 40
SWIDTH 720 0
DWIDTH 6 0
BBX 5 8 0 -1
BITMAP
38
40
80
80
80
80
40
38
ENDCHAR
STARTCHAR 0029
ENCODING 41
SWIDTH 720 0
DWIDTH 6 0
BBX 5 8 0 -1
BITMAP
E0
10
08
08
08
08
10
E0
ENDCHAR
STARTCHAR 002A
ENCODING 42
SWIDTH 720 0
DWIDTH 6 0
BBX 3 3 1 4
BITMAP
A0
40
A0
ENDCHAR
STARTCHAR 002B
ENCODING 43
SWIDTH 720 0
DWIDTH 6 0
BBX 5 5 0 1
BITMAP
20
20
F8
20
20
ENDCHAR
STARTCHAR 002C
ENCODING 44
SWIDTH 720 0
DWIDTH 6 0
BBX 1 2 2 -1
BITMAP
80
80
ENDCHAR
STARTCHAR 002D
ENCODING 45
SWIDTH 720 0
DWIDTH 6 0
BBX 5 1 0 3
BITMAP
F8
ENDCHAR
STARTCHAR 002E
ENCODING 46
SWIDTH 720 0
DWIDTH 6 0
BBX 1 1 2 0
BITMAP
80
ENDCHAR
STARTCHAR 002F
ENCODING 47
SWIDTH 720 0
DWIDTH 6 0
BBX 5 7 0 0
BITMAP
08
08
10
20
40
80
80
ENDCHAR
STARTCHAR 0030
ENCODING 48
SWIDTH 720 0
DWIDTH 6 0
BBX 5 7 0 0
BITMAP
70
88
88
A8
88
88
70
ENDCHAR
STARTCHAR 0031
ENCODING 49
SWIDTH 720 0
DWIDTH 6 0
BBX 5 7 0 0
BITMAP
E0
20
20
20
20
20
F8
ENDCHAR
STARTCHAR 0032
ENCODING 50
SWIDTH 720 0
DWIDTH 6 0
BBX 5 7 0 0
BITMAP
70
88
08
10
20
40
F8
ENDCHAR
STARTCHAR 0033
ENCODING 51
SWIDTH 720 0
DWIDTH 6 0
BBX 5 7 0 0
BITMAP
70
88
08
30
08
88
70
ENDCHAR
STARTCHAR 0034
ENCODING 52
SWIDTH 720 0
DWIDTH 6 0
BBX 5 7 0 0
BITMAP
10
30
50
90
F8
10
10
ENDCHAR
STARTCHAR 0035
ENCODING 53
SWIDTH 720 0
DWIDTH 6 0
BBX 5 7 0 0
BITMAP
F8
80
80
F0
08
88
70
ENDCHAR
STARTCHAR 0036
ENCODING 54
SWIDTH 720 0
DWIDTH 6 0
BBX 5 7 0 0
BITMAP
70
88
80
F0
88
88
70
ENDCHAR
STARTCHAR 0037
ENCODING 55
SWIDTH 720 0
DWIDTH 6 0
BBX 5 7 0 0
BITMAP
F8
08
08
10
20
40
80
ENDCHAR
STARTCHAR 0038
ENCODING 56
SWIDTH 720 0
DWIDTH 6 0
BBX 5 7 0 0
BITMAP
70
88
88
70
88
88
70
ENDCHAR
STARTCHAR 0039
ENCODING 57
SWIDTH 720 0
DWIDTH 6 0
BBX 5 7 0 0
BITMAP
70
88
88
78
08
88
70
ENDCHAR
STARTCHAR 003A
ENCODING 58
SWIDTH 720 0
DWIDTH 6 0
BBX 1 5 2 0
BITMAP
80
00
00
00
80
ENDCHAR
STARTCHAR 003B
ENCODING 59
SWIDTH 720 0
DWIDTH 6 0
BBX 1 6 2 -1
BITMAP
80
00
00
00
80
80
ENDCHAR
STARTCHAR 003C
ENCODING 60
SWIDTH 720 0
DWIDTH 6 0
BBX 5 7 0 0
BITMAP
18
20
40
80
40
20
18
ENDCHAR
STARTCHAR 003D
ENCODING 61
SWIDTH 720 0
DWIDTH 6 0
BBX 5 3 0 2
BITMAP
F8
00
F8
ENDCHAR
STARTCHAR 003E
ENCODING 62
SWIDTH 720 0
DWIDTH 6 0
BBX 5 7 0 0
BITMAP
C0
20
10
08
10
20
C0
ENDCHAR
STARTCHAR 003F
ENCODING 63
SWIDTH 720 0
DWIDTH 6 0
BBX 5 7 0 0
BITMAP
70
88
08
10
20
00
20
ENDCHAR
STARTCHAR 0040
ENCODING 64
SWIDTH 720 0
DWIDTH 6 0
BBX 5 7 0 0
BITMAP
F8
88
A8
B8
80
80
F8
ENDCHAR
STARTCHAR 0041
ENCODING 65
SWIDTH 720 0
DWIDTH 6 0
BBX 5 7 0 0
BITMAP
70
88
88
F8
88
88
88
ENDCHAR
STARTCHAR 0042
ENCODING 66
SWIDTH 720 0
DWIDTH 6 0
BBX 5 7 0 0
BITMAP
F0
88
88
F0
88
88
F0
ENDCHAR
STARTCHAR 0043
ENCODING 67
SWIDTH 720 0
DWIDTH 6 0
BBX 5 7 0 0
BITMAP
70
88
80
80
80
88
70
ENDCHAR
STARTCHAR 0044
ENCODING 68
SWIDTH 720 0
DWIDTH 6 0
BBX 5 7 0 0
BITMAP
E0
90
88
88
88
90
E0
ENDCHAR
STARTCHAR 0045
ENCODING 69
SWIDTH 720 0
DWIDTH 6 0
BBX 5 7 0 0
BITMAP
F8
80
80
F0
80
80
F8
ENDCHAR
STARTCHAR 0046
ENCODING 70
SWIDTH 720 0
DWIDTH 6 0
BBX 5 7 0 0
BITMAP
F8
80
80
F0
80
80
80
ENDCHAR
STARTCHAR 0047
ENCODING 71
SWIDTH 720 0
DWIDTH 6 0
BBX 5 7 0 0
BITMAP
70
80
80
B8
88
88
70
ENDCHAR
STARTCHAR 0048
ENCODING 72
SWIDTH 720 0
DWIDTH 6 0
BBX 5 7 0 0
BITMAP
88
88
88
F8
88
88
88
ENDCHAR
STARTCHAR 0049
ENCODING 73
SWIDTH 720 0
DWIDTH 6 0
BBX 5 7 0 0
BITMAP
F8
20
20
20
20
20
F8
ENDCHAR
STARTCHAR 004A
ENCODING 74
SWIDTH 720 0
DWIDTH 6 0
BBX 5 7 0 0
BITMAP
18
08
08
08
88
88
70
ENDCHAR
STARTCHAR 004B
ENCODING 75
SWIDTH 720 0
DWIDTH 6 0
BBX 5 7 0 0
BITMAP
88
90
A0
C0
A0
90
88
ENDCHAR
STARTCHAR 004C
ENCODING 76
SWIDTH 720 0
DWIDTH 6 0
BBX 5 7 0 0
BITMAP
80
80
80
80
80
80
F8
ENDCHAR
STARTCHAR 004D
ENCODING 77
SWIDTH 720 0
DWIDTH 6 0
BBX 5 7 0 0
BITMAP
88
D8
D8
A8
A8
88
88
ENDCHAR
STARTCHAR 004E
ENCODING 78
SWIDTH 720 0
DWIDTH 6 0
BBX 5 7 0 0
BITMAP
C8
C8
A8
A8
A8
98
98
ENDCHAR
STARTCHAR 004F
ENCODING 79
SWIDTH 720 0
DWIDTH 6 0
BBX 5 7 0 0
BITMAP
70
88
88
88
88
88
70
ENDCHAR
STARTCHAR 0050
ENCODING 80
SWIDTH 720 0
DWIDTH 6 0
BBX 5 7 0 0
BITMAP
F0
88
88
F0
80
80
80
ENDCHAR
STARTCHAR 0051
ENCODING 81
SWIDTH 720 0
DWIDTH 6 0
BBX 5 7 0 0
BITMAP
70
88
88
88
A8
90
68
ENDCHAR
STARTCHAR 0052
ENCODING 82
SWIDTH 720 0
DWIDTH 6 0
BBX 5 7 0 0
BITMAP
F0
88
88
F0
A0
90
88
ENDCHAR
STARTCHAR 0053
ENCODING 83
SWIDTH 720 0
DWIDTH 6 0
BBX 5 7 0 0
BITMAP
70
88
80
70
08
88
70
ENDCHAR
STARTCHAR 0054
ENCODING 84
SWIDTH 720 0
DWIDTH 6 0
BBX 5 7 0 0
BITMAP
F8
20
20
20
20
20
20
ENDCHAR
STARTCHAR 0055
ENCODING 85
SWIDTH 720 0
DWIDTH 6 0
BBX 5 7 0 0
BITMAP
88
88
88
88
88
88
70
ENDCHAR
STARTCHAR 0056
ENCODING 86
SWIDTH 720 0
DWIDTH 6 0
BBX 5 7 0 0
BITMAP
88
88
88
50
50
20
20
ENDCHAR
STARTCHAR 0057
ENCODING 87
SWIDTH 720 0
DWIDTH 6 0
BBX 5 7 0 0
BITMAP
A8
A8
A8
A8
A8
50
50
ENDCHAR
STARTCHAR 0058
ENCODING 88
SWIDTH 720 0
DWIDTH 6 0
BBX 5 7 0 0
BITMAP
88
88
50
20
50
88
88
ENDCHAR
STARTCHAR 0059
ENCODING 89
SWIDTH 720 0
DWIDTH 6 0
BBX 5 7 0 0
BITMAP
88
88
88
70
20
20
20
ENDCHAR
STARTCHAR 005A
ENCODING 90
SWIDTH 720 0
DWIDTH 6 0
BBX 5 7 0 0
BITMAP
F8
08
10
20
40
80
F8
ENDCHAR
STARTCHAR 005B
ENCODING 91
SWIDTH 720 0
DWIDTH 6 0
BBX 5 8 0 -1
BITMAP
F8
80
80
80
80
80
80
F8
ENDCHAR
STARTCHAR 005C
ENCODING 92
SWIDTH 720 0
DWIDTH 6 0
BBX 5 7 0 0
BITMAP
80
80
40
20
10
08
08
ENDCHAR
STARTCHAR 005D
ENCODING 93
SWIDTH 720 0
DWIDTH 6 0
BBX 5 8 0 -1
BITMAP
F8
08
08
08
08
08
08
F8
ENDCHAR
STARTCHAR 005E
ENCODING 94
SWIDTH 720 0
DWIDTH 6 0
BBX 5 3 0 4
BITMAP
20
50
88
ENDCHAR
STARTCHAR 005F
ENCODING 95
SWIDTH 720 0
DWIDTH 6 0
BBX 5 1 0 -1
BITMAP
F8
ENDCHAR
STARTCHAR 0060
ENCODING 96
SWIDTH 720 0
DWIDTH 6 0
BBX 2 2 1 7
BITMAP
80
40
ENDCHAR
STARTCHAR 0061
ENCODING 97
SWIDTH 720 0
DWIDTH 6 0
BBX 5 5 0 0
BITMAP
68
98
88
98
68
ENDCHAR
STARTCHAR 0062
ENCODING 98
SWIDTH 720 0
DWIDTH 6 0
BBX 5 7 0 0
BITMAP
80
80
B0
C8
88
C8
B0
ENDCHAR
STARTCHAR 0063
ENCODING 99
SWIDTH 720 0
DWIDTH 6 0
BBX 5 5 0 0
BITMAP
78
80
80
80
78
ENDCHAR
STARTCHAR 0064
ENCODING 100
SWIDTH 720 0
DWIDTH 6 0
BBX 5 7 0 0
BITMAP
08
08
68
98
88
98
68
ENDCHAR
STARTCHAR 0065
ENCODING 101
SWIDTH 720 0
DWIDTH 6 0
BBX 5 5 0 0
BITMAP
70
88
F8
80
78
ENDCHAR
STARTCHAR 0066
ENCODING 102
SWIDTH 720 0
DWIDTH 6 0
BBX 5 7 0 0
BITMAP
30
20
F8
20
20
20
20
ENDCHAR
STARTCHAR 0067
ENCODING 103
SWIDTH 720 0
DWIDTH 6 0
BBX 5 7 0 -2
BITMAP
70
88
88
88
78
08
70
ENDCHAR
STARTCHAR 0068
ENCODING 104
SWIDTH 720 0
DWIDTH 6 0
BBX 5 7 0 0
BITMAP
80
80
B0
C8
88
88
88
ENDCHAR
STARTCHAR 0069
ENCODING 105
SWIDTH 720 0
DWIDTH 6 0
BBX 5 5 0 0
BITMAP
F8
20
20
20
F8
ENDCHAR
STARTCHAR 006A
ENCODING 106
SWIDTH 720 0
DWIDTH 6 0
BBX 5 5 0 0
BITMAP
08
08
88
88
70
ENDCHAR
STARTCHAR 006B
ENCODING 107
SWIDTH 720 0
DWIDTH 6 0
BBX 5 7 0 0
BITMAP
80
80
88
90
E0
90
88
ENDCHAR
STARTCHAR 006C
ENCODING 108
SWIDTH 720 0
DWIDTH 6 0
BBX 5 5 0 0
BITMAP
80
80
80
80
F8
ENDCHAR
STARTCHAR 006D
ENCODING 109
SWIDTH 720 0
DWIDTH 6 0
BBX 5 5 0 0
BITMAP
88
D8
A8
A8
88
ENDCHAR
STARTCHAR 006E
ENCODING 110
SWIDTH 720 0
DWIDTH 6 0
BBX 5 5 0 0
BITMAP
B0
C8
88
88
88
ENDCHAR
STARTCHAR 006F
ENCODING 111
SWIDTH 720 0
DWIDTH 6 0
BBX 5 5 0 0
BITMAP
70
88
88
88
70
ENDCHAR
STARTCHAR 0070
ENCODING 112
SWIDTH 720 0
DWIDTH 6 0
BBX 5 7 0 -2
BITMAP
70
88
88
88
F0
80
80
ENDCHAR
STARTCHAR 0071
ENCODING 113
SWIDTH 720 0
DWIDTH 6 0
BBX 5 7 0 -2
BITMAP
70
88
88
88
78
08
08
ENDCHAR
STARTCHAR 0072
ENCODING 114
SWIDTH 720 0
DWIDTH 6 0
BBX 5 5 0 0
BITMAP
98
A0
C0
80
80
ENDCHAR
STARTCHAR 0073
ENCODING 115
SWIDTH 720 0
DWIDTH 6 0
BBX 5 5 0 0
BITMAP
78
80
70
08
F0
ENDCHAR
STARTCHAR 0074
ENCODING 116
SWIDTH 720 0
DWIDTH 6 0
BBX 5 7 0 0
BITMAP
20
20
F8
20
20
20
30
ENDCHAR
STARTCHAR 0075
ENCODING 117
SWIDTH 720 0
DWIDTH 6 0
BBX 5 5 0 0
BITMAP
88
88
88
88
70
ENDCHAR
STARTCHAR 0076
ENCODING 118
SWIDTH 720 0
DWIDTH 6 0
BBX 5 5 0 0
BITMAP
88
88
88
50
20
ENDCHAR
STARTCHAR 0077
ENCODING 119
SWIDTH 720 0
DWIDTH 6 0
BBX 5 5 0 0
BITMAP
88
88
A8
A8
50
ENDCHAR
STARTCHAR 0078
ENCODING 120
SWIDTH 720 0
DWIDTH 6 0
BBX 5 5 0 0
BITMAP
88
50
20
50
88
ENDCHAR
STARTCHAR 0079
ENCODING 121
SWIDTH 720 0
DWIDTH 6 0
BBX 5 7 0 -2
BITMAP
88
88
50
50
20
20
C0
ENDCHAR
STARTCHAR 007A
ENCODING 122
SWIDTH 720 0
DWIDTH 6 0
BBX 5 5 0 0
BITMAP
F8
08
70
80
F8
ENDCHAR
STARTCHAR 007B
ENCODING 123
SWIDTH 720 0
DWIDTH 6 0
BBX 5 8 0 -1
BITMAP
38
40
40
C0
C0
40
40
38
ENDCHAR
STARTCHAR 007C
ENCODING 124
SWIDTH 720 0
DWIDTH 6 0
BBX 1 8 2 -1
BITMAP
80
80
80
80
80
80
80
80
ENDCHAR
STARTCHAR 007D
ENCODING 125
SWIDTH 720 0
DWIDTH 6 0
BBX 5 8 0 -1
BITMAP
E0
10
10
18
18
10
10
E0
ENDCHAR
STARTCHAR 007E
ENCODING 126
SWIDTH 720 0
DWIDTH 6 0
BBX 5 3 0 2
BITMAP
40
A8
10
ENDCHAR
STARTCHAR 00A0
ENCODING 160
SWIDTH 720 0
DWIDTH 6 0
BBX 0 0 0 0
BITMAP
ENDCHAR
STARTCHAR 00A1
ENCODING 161
SWIDTH 720 0
DWIDTH 6 0
BBX 1 7 2 -1
BITMAP
80
00
80
80
80
80
80
ENDCHAR
STARTCHAR 00A2
ENCODING 162
SWIDTH 720 0
DWIDTH 6 0
BBX 5 7 0 -1
BITMAP
20
78
A0
A0
A0
78
20
ENDCHAR
STARTCHAR 00A3
ENCODING 163
SWIDTH 720 0
DWIDTH 6 0
BBX 5 7 0 0
BITMAP
30
48
40
E0
40
40
F8
ENDCHAR
STARTCHAR 00A4
ENCODING 164
SWIDTH 720 0
DWIDTH 6 0
BBX 5 5 0 1
BITMAP
88
70
50
70
88
ENDCHAR
STARTCHAR 00A5
ENCODING 165
SWIDTH 720 0
DWIDTH 6 0
BBX 5 7 0 0
BITMAP
88
50
20
F8
20
F8
20
ENDCHAR
STARTCHAR 00A6
ENCODING 166
SWIDTH 720 0
DWIDTH 6 0
BBX 1 8 2 -1
BITMAP
80
80
80
00
00
80
80
80
ENDCHAR
STARTCHAR 00A7
ENCODING 167
SWIDTH 720 0
DWIDTH 6 0
BBX 5 9 0 -1
BITMAP
70
88
80
70
88
70
08
88
70
ENDCHAR
STARTCHAR 00A8
ENCODING 168
SWIDTH 720 0
DWIDTH 6 0
BBX 3 1 1 8
BITMAP
A0
ENDCHAR
STARTCHAR 00A9
ENCODING 169
SWIDTH 720 0
DWIDTH 6 0
BBX 6 7 -1 0
BITMAP
78
84
B4
A4
B4
84
78
ENDCHAR
STARTCHAR 00AA
ENCODING 170
SWIDTH 720 0
DWIDTH 6 0
BBX 5 4 0 2
BITMAP
70
78
88
78
ENDCHAR
STARTCHAR 00AB
ENCODING 171
SWIDTH 720 0
DWIDTH 6 0
BBX 5 5 0 0
BITMAP
28
50
A0
50
28
ENDCHAR
STARTCHAR 00AC
ENCODING 172
SWIDTH 720 0
DWIDTH 6 0
BBX 5 3 0 1
BITMAP
F8
08
08
ENDCHAR
STARTCHAR 00AD
ENCODING 173
SWIDTH 720 0
DWIDTH 6 0
BBX 5 1 0 3
BITMAP
F8
ENDCHAR
STARTCHAR 00AE
ENCODING 174
SWIDTH 720 0
DWIDTH 6 0
BBX 6 7 -1 0
BITMAP
78
84
B4
B4
AC
84
78
ENDCHAR
STARTCHAR 00AF
ENCODING 175
SWIDTH 720 0
DWIDTH 6 0
BBX 3 1 1 8
BITMAP
E0
ENDCHAR
STARTCHAR 00B0
ENCODING 176
SWIDTH 720 0
DWIDTH 6 0
BBX 4 4 1 3
BITMAP
60
90
90
60
ENDCHAR
STARTCHAR 00B1
ENCODING 177
SWIDTH 720 0
DWIDTH 6 0
BBX 5 6 0 0
BITMAP
20
20
F8
20
00
F8
ENDCHAR
STARTCHAR 00B2
ENCODING 178
SWIDTH 720 0
DWIDTH 6 0
BBX 5 4 0 2
BITMAP
F0
20
40
F8
ENDCHAR
STARTCHAR 00B3
ENCODING 179
SWIDTH 720 0
DWIDTH 6 0
BBX 5 4 0 2
BITMAP
F8
70
08
F0
ENDCHAR
STARTCHAR 00B4
ENCODING 180
SWIDTH 720 0
DWIDTH 6 0
BBX 2 2 2 7
BITMAP
40
80
ENDCHAR
STARTCHAR 00B5
ENCODING 181
SWIDTH 720 0
DWIDTH 6 0
BBX 5 7 0 -2
BITMAP
88
88
88
88
F0
80
80
ENDCHAR
STARTCHAR 00B6
ENCODING 182
SWIDTH 720 0
DWIDTH 6 0
BBX 5 7 0 0
BITMAP
78
E8
E8
68
28
28
28
ENDCHAR
STARTCHAR 00B7
ENCODING 183
SWIDTH 720 0
DWIDTH 6 0
BBX 1 1 2 3
BITMAP
80
ENDCHAR
STARTCHAR 00B8
ENCODING 184
SWIDTH 720 0
DWIDTH 6 0
BBX 2 2 1 -2
BITMAP
40
80
ENDCHAR
STARTCHAR 00B9
ENCODING 185
SWIDTH 720 0
DWIDTH 6 0
BBX 5 4 0 2
BITMAP
E0
20
20
F8
ENDCHAR
STARTCHAR 00BA
ENCODING 186
SWIDTH 720 0
DWIDTH 6 0
BBX 5 4 0 2
BITMAP
F8
88
88
70
ENDCHAR
STARTCHAR 00BB
ENCODING 187
SWIDTH 720 0
DWIDTH 6 0
BBX 5 5 0 0
BITMAP
A0
50
28
50
A0
ENDCHAR
STARTCHAR 00BF
ENCODING 191
SWIDTH 720 0
DWIDTH 6 0
BBX 5 7 0 -1
BITMAP
20
00
20
40
80
88
70
ENDCHAR
STARTCHAR 00C0
ENCODING 192
SWIDTH 720 0
DWIDTH 6 0
BBX 5 9 0 0
BITMAP
40
20
70
88
88
F8
88
88
88
ENDCHAR
STARTCHAR 00C1
ENCODING 193
SWIDTH 720 0
DWIDTH 6 0
BBX 5 9 0 0
BITMAP
10
20
70
88
88
F8
88
88
88
ENDCHAR
STARTCHAR 00C2
ENCODING 194
SWIDTH 720 0
DWIDTH 6 0
BBX 5 9 0 0
BITMAP
20
50
70
88
88
F8
88
88
88
ENDCHAR
STARTCHAR 00C3
ENCODING 195
SWIDTH 720 0
DWIDTH 6 0
BBX 5 9 0 0
BITMAP
28
50
70
88
88
F8
88
88
88
ENDCHAR
STARTCHAR 00C4
ENCODING 196
SWIDTH 720 0
DWIDTH 6 0
BBX 5 9 0 0
BITMAP
50
00
70
88
88
F8
88
88
88
ENDCHAR
STARTCHAR 00C5
ENCODING 197
SWIDTH 720 0
DWIDTH 6 0
BBX 5 9 0 0
BITMAP
20
50
70
88
88
F8
88
88
88
ENDCHAR
STARTCHAR 00C6
ENCODING 198
SWIDTH 720 0
DWIDTH 6 0
BBX 5 7 0 0
BITMAP
58
A0
A0
F8
A0
A0
B8
ENDCHAR
STARTCHAR 00C7
ENCODING 199
SWIDTH 720 0
DWIDTH 6 0
BBX 5 9 0 -2
BITMAP
70
88
80
80
80
88
70
20
40
ENDCHAR
STARTCHAR 00C8
ENCODING 200
SWIDTH 720 0
DWIDTH 6 0
BBX 5 9 0 0
BITMAP
40
20
F8
80
80
F0
80
80
F8
ENDCHAR
STARTCHAR 00C9
ENCODING 201
SWIDTH 720 0
DWIDTH 6 0
BBX 5 9 0 0
BITMAP
10
20
F8
80
80
F0
80
80
F8
ENDCHAR
STARTCHAR 00CA
ENCODING 202
SWIDTH 720 0
DWIDTH 6 0
BBX 5 9 0 0
BITMAP
20
50
F8
80
80
F0
80
80
F8
ENDCHAR
STARTCHAR 00CB
ENCODING 203
SWIDTH 720 0
DWIDTH 6 0
BBX 5 9 0 0
BITMAP
50
00
F8
80
80
F0
80
80
F8
ENDCHAR
STARTCHAR 00CC
ENCODING 204
SWIDTH 720 0
DWIDTH 6 0
BBX 5 9 0 0
BITMAP
40
20
F8
20
20
20
20
20
F8
ENDCHAR
STARTCHAR 00CD
ENCODING 205
SWIDTH 720 0
DWIDTH 6 0
BBX 5 9 0 0
BITMAP
10
20
F8
20
20
20
20
20
F8
ENDCHAR
STARTCHAR 00CE
ENCODING 206
SWIDTH 720 0
DWIDTH 6 0
BBX 5 9 0 0
BITMAP
20
50
F8
20
20
20
20
20
F8
ENDCHAR
STARTCHAR 00CF
ENCODING 207
SWIDTH 720 0
DWIDTH 6 0
BBX 5 9 0 0
BITMAP
50
00
F8
20
20
20
20
20
F8
ENDCHAR
STARTCHAR 00D0
ENCODING 208
SWIDTH 720 0
DWIDTH 6 0
BBX 6 7 -1 0
BITMAP
70
48
44
E4
44
48
70
ENDCHAR
STARTCHAR 00D1
ENCODING 209
SWIDTH 720 0
DWIDTH 6 0
BBX 5 9 0 0
BITMAP
28
50
C8
C8
A8
A8
A8
98
98
ENDCHAR
STARTCHAR 00D2
ENCODING 210
SWIDTH 720 0
DWIDTH 6 0
BBX 5 9 0 0
BITMAP
40
20
70
88
88
88
88
88
70
ENDCHAR
STARTCHAR 00D3
ENCODING 211
SWIDTH 720 0
DWIDTH 6 0
BBX 5 9 0 0
BITMAP
10
20
70
88
88
88
88
88
70
ENDCHAR
STARTCHAR 00D4
ENCODING 212
SWIDTH 720 0
DWIDTH 6 0
BBX 5 9 0 0
BITMAP
20
50
70
88
88
88
88
88
70
ENDCHAR
STARTCHAR 00D5
ENCODING 213
SWIDTH 720 0
DWIDTH 6 0
BBX 5 9 0 0
BITMAP
28
50
70
88
88
88
88
88
70
ENDCHAR
STARTCHAR 00D6
ENCODING 214
SWIDTH 720 0
DWIDTH 6 0
BBX 5 9 0 0
BITMAP
50
00
70
88
88
88
88
88
70
ENDCHAR
STARTCHAR 00D7
ENCODING 215
SWIDTH 720 0
DWIDTH 6 0
BBX 5 5 0 1
BITMAP
88
50
20
50
88
ENDCHAR
STARTCHAR 00D8
ENCODING 216
SWIDTH 720 0
DWIDTH 6 0
BBX 5 7 0 0
BITMAP
70
88
98
A8
C8
88
70
ENDCHAR
STARTCHAR 00D9
ENCODING 217
SWIDTH 720 0
DWIDTH 6 0
BBX 5 9 0 0
BITMAP
40
20
88
88
88
88
88
88
70
ENDCHAR
STARTCHAR 00DA
ENCODING 218
SWIDTH 720 0
DWIDTH 6 0
BBX 5 9 0 0
BITMAP
10
20
88
88
88
88
88
88
70
ENDCHAR
STARTCHAR 00DB
ENCODING 219
SWIDTH 720 0
DWIDTH 6 0
BBX 5 9 0 0
BITMAP
20
50
88
88
88
88
88
88
70
ENDCHAR
STARTCHAR 00DC
ENCODING 220
SWIDTH 720 0
DWIDTH 6 0
BBX 5 9 0 0
BITMAP
50
00
88
88
88
88
88
88
70
ENDCHAR
STARTCHAR 00DD
ENCODING 221
SWIDTH 720 0
DWIDTH 6 0
BBX 5 9 0 0
BITMAP
10
20
88
88
88
70
20
20
20
ENDCHAR
STARTCHAR 00DE
ENCODING 222
SWIDTH 720 0
DWIDTH 6 0
BBX 5 7 0 0
BITMAP
80
F0
88
88
88
F0
80
ENDCHAR
STARTCHAR 00DF
ENCODING 223
SWIDTH 720 0
DWIDTH 6 0
BBX 5 7 0 0
BITMAP
60
90
90
A0
90
88
B0
ENDCHAR
STARTCHAR 00E0
ENCODING 224
SWIDTH 720 0
DWIDTH 6 0
BBX 5 8 0 0
BITMAP
40
20
00
68
98
88
98
68
ENDCHAR
STARTCHAR 00E1
ENCODING 225
SWIDTH 720 0
DWIDTH 6 0
BBX 5 8 0 0
BITMAP
10
20
00
68
98
88
98
68
ENDCHAR
STARTCHAR 00E2
ENCODING 226
SWIDTH 720 0
DWIDTH 6 0
BBX 5 8 0 0
BITMAP
20
50
00
68
98
88
98
68
ENDCHAR
STARTCHAR 00E3
ENCODING 227
SWIDTH 720 0
DWIDTH 6 0
BBX 5 8 0 0
BITMAP
28
50
00
68
98
88
98
68
ENDCHAR
STARTCHAR 00E4
ENCODING 228
SWIDTH 720 0
DWIDTH 6 0
BBX 5 7 0 0
BITMAP
50
00
68
98
88
98
68
ENDCHAR
STARTCHAR 00E5
ENCODING 229
SWIDTH 720 0
DWIDTH 6 0
BBX 5 8 0 0
BITMAP
20
50
20
68
98
88
98
68
ENDCHAR
STARTCHAR 00E6
ENCODING 230
SWIDTH 720 0
DWIDTH 6 0
BBX 5 5 0 0
BITMAP
70
A8
B0
A0
78
ENDCHAR
STARTCHAR 00E7
ENCODING 231
SWIDTH 720 0
DWIDTH 6 0
BBX 5 7 0 -2
BITMAP
78
80
80
80
78
20
40
ENDCHAR
STARTCHAR 00E8
ENCODING 232
SWIDTH 720 0
DWIDTH 6 0
BBX 5 8 0 0
BITMAP
40
20
00
70
88
F8
80
78
ENDCHAR
STARTCHAR 00E9
ENCODING 233
SWIDTH 720 0
DWIDTH 6 0
BBX 5 8 0 0
BITMAP
10
20
00
70
88
F8
80
78
ENDCHAR
STARTCHAR 00EA
ENCODING 234
SWIDTH 720 0
DWIDTH 6 0
BBX 5 8 0 0
BITMAP
20
50
00
70
88
F8
80
78
ENDCHAR
STARTCHAR 00EB
ENCODING 235
SWIDTH 720 0
DWIDTH 6 0
BBX 5 7 0 0
BITMAP
50
00
70
88
F8
80
78
ENDCHAR
STARTCHAR 00EC
ENCODING 236
SWIDTH 720 0
DWIDTH 6 0
BBX 5 8 0 0
BITMAP
40
20
00
F8
20
20
20
F8
ENDCHAR
STARTCHAR 00ED
ENCODING 237
SWIDTH 720 0
DWIDTH 6 0
BBX 5 8 0 0
BITMAP
10
20
00
F8
20
20
20
F8
ENDCHAR
STARTCHAR 00EE
ENCODING 238
SWIDTH 720 0
DWIDTH 6 0
BBX 5 8 0 0
BITMAP
20
50
00
F8
20
20
20
F8
ENDCHAR
STARTCHAR 00EF
ENCODING 239
SWIDTH 720 0
DWIDTH 6 0
BBX 5 7 0 0
BITMAP
50
00
F8
20
20
20
F8
ENDCHAR
STARTCHAR 00F0
ENCODING 240
SWIDTH 720 0
DWIDTH 6 0
BBX 5 8 0 0
BITMAP
28
10
08
78
88
88
88
70
ENDCHAR
STARTCHAR 00F1
ENCODING 241
SWIDTH 720 0
DWIDTH 6 0
BBX 5 8 0 0
BITMAP
28
50
00
B0
C8
88
88
88
ENDCHAR
STARTCHAR 00F2
ENCODING 242
SWIDTH 720 0
DWIDTH 6 0
BBX 5 8 0 0
BITMAP
40
20
00
70
88
88
88
70
ENDCHAR
STARTCHAR 00F3
ENCODING 243
SWIDTH 720 0
DWIDTH 6 0
BBX 5 8 0 0
BITMAP
10
20
00
70
88
88
88
70
ENDCHAR
STARTCHAR 00F4
ENCODING 244
SWIDTH 720 0
DWIDTH 6 0
BBX 5 8 0 0
BITMAP
20
50
00
70
88
88
88
70
ENDCHAR
STARTCHAR 00F5
ENCODING 245
SWIDTH 720 0
DWIDTH 6 0
BBX 5 8 0 0
BITMAP
28
50
00
70
88
88
88
70
ENDCHAR
STARTCHAR 00F6
ENCODING 246
SWIDTH 720 0
DWIDTH 6 0
BBX 5 7 0 0
BITMAP
50
00
70
88
88
88
70
ENDCHAR
STARTCHAR 00F7
ENCODING 247
SWIDTH 720 0
DWIDTH 6 0
BBX 5 5 0 1
BITMAP
20
00
F8
00
20
ENDCHAR
STARTCHAR 00F8
ENCODING 248
SWIDTH 720 0
DWIDTH 6 0
BBX 5 5 0 0
BITMAP
70
98
A8
C8
70
ENDCHAR
STARTCHAR 00F9
ENCODING 249
SWIDTH 720 0
DWIDTH 6 0
BBX 5 8 0 0
BITMAP
40
20
00
88
88
88
88
70
ENDCHAR
STARTCHAR 00FA
ENCODING 250
SWIDTH 720 0
DWIDTH 6 0
BBX 5 8 0 0
BITMAP
10
20
00
88
88
88
88
70
ENDCHAR
STARTCHAR 00FB
ENCODING 251
SWIDTH 720 0
DWIDTH 6 0
BBX 5 8 0 0
BITMAP
20
50
00
88
88
88
88
70
ENDCHAR
STARTCHAR 00FC
ENCODING 252
SWIDTH 720 0
DWIDTH 6 0
BBX 5 7 0 0
BITMAP
50
00
88
88
88
88
70
ENDCHAR
STARTCHAR 00FD
ENCODING 253
SWIDTH 720 0
DWIDTH 6 0
BBX 5 10 0 -2
BITMAP
10
20
00
88
88
50
50
20
20
C0
ENDCHAR
STARTCHAR 00FE
ENCODING 254
SWIDTH 720 0
DWIDTH 6 0
BBX 5 8 0 -1
BITMAP
80
80
B0
C8
88
C8
B0
80
ENDCHAR
STARTCHAR 00FF
ENCODING 255
SWIDTH 720 0
DWIDTH 6 0
BBX 5 9 0 -2
BITMAP
50
00
88
88
50
50
20
20
C0
ENDCHAR
STARTCHAR 0100
ENCODING 256
SWIDTH 720 0
DWIDTH 6 0
BBX 5 9 0 0
BITMAP
70
00
70
88
88
F8
88
88
88
ENDCHAR
STARTCHAR 0101
ENCODING 257
SWIDTH 720 0
DWIDTH 6 0
BBX 5 7 0 0
BITMAP
70
00
68
98
88
98
68
ENDCHAR
STARTCHAR 0102
ENCODING 258
SWIDTH 720 0
DWIDTH 6 0
BBX 5 9 0 0
BITMAP
50
70
70
88
88
F8
88
88
88
ENDCHAR
STARTCHAR 0103
ENCODING 259
SWIDTH 720 0
DWIDTH 6 0
BBX 5 8 0 0
BITMAP
50
70
00
68
98
88
98
68
ENDCHAR
STARTCHAR 0104
ENCODING 260
SWIDTH 720 0
DWIDTH 6 0
BBX 5 9 0 -2
BITMAP
70
88
88
F8
88
88
88
10
08
ENDCHAR
STARTCHAR 0105
ENCODING 261
SWIDTH 720 0
DWIDTH 6 0
BBX 5 7 0 -2
BITMAP
68
98
88
98
68
10
08
ENDCHAR
STARTCHAR 0106
ENCODING 262
SWIDTH 720 0
DWIDTH 6 0
BBX 5 9 0 0
BITMAP
10
20
70
88
80
80
80
88
70
ENDCHAR
STARTCHAR 0107
ENCODING 263
SWIDTH 720 0
DWIDTH 6 0
BBX 5 8 0 0
BITMAP
10
20
00
78
80
80
80
78
ENDCHAR
STARTCHAR 0108
ENCODING 264
SWIDTH 720 0
DWIDTH 6 0
BBX 5 9 0 0
BITMAP
20
50
70
88
80
80
80
88
70
ENDCHAR
STARTCHAR 0109
ENCODING 265
SWIDTH 720 0
DWIDTH 6 0
BBX 5 8 0 0
BITMAP
20
50
00
78
80
80
80
78
ENDCHAR
STARTCHAR 010A
ENCODING 266
SWIDTH 720 0
DWIDTH 6 0
BBX 5 9 0 0
BITMAP
20
00
70
88
80
80
80
88
70
ENDCHAR
STARTCHAR 010B
ENCODING 267
SWIDTH 720 0
DWIDTH 6 0
BBX 5 7 0 0
BITMAP
20
00
78
80
80
80
78
ENDCHAR
STARTCHAR 010C
ENCODING 268
SWIDTH 720 0
DWIDTH 6 0
BBX 5 9 0 0
BITMAP
50
20
70
88
80
80
80
88
70
ENDCHAR
STARTCHAR 010D
ENCODING 269
SWIDTH 720 0
DWIDTH 6 0
BBX 5 8 0 0
BITMAP
50
20
00
78
80
80
80
78
ENDCHAR
STARTCHAR 010E
ENCODING 270
SWIDTH 720 0
DWIDTH 6 0
BBX 5 9 0 0
BITMAP
A0
40
E0
90
88
88
88
90
E0
ENDCHAR
STARTCHAR 010F
ENCODING 271
SWIDTH 720 0
DWIDTH 6 0
BBX 5 7 0 0
BITMAP
28
28
60
A0
A0
A0
60
ENDCHAR
STARTCHAR 0110
ENCODING 272
SWIDTH 720 0
DWIDTH 6 0
BBX 5 7 0 0
BITMAP
E0
90
88
E8
88
90
E0
ENDCHAR
STARTCHAR 0111
ENCODING 273
SWIDTH 720 0
DWIDTH 6 0
BBX 5 7 0 0
BITMAP
08
18
68
98
88
98
68
ENDCHAR
STARTCHAR 0112
ENCODING 274
SWIDTH 720 0
DWIDTH 6 0
BBX 5 9 0 0
BITMAP
70
00
F8
80
80
F0
80
80
F8
ENDCHAR
STARTCHAR 0113
ENCODING 275
SWIDTH 720 0
DWIDTH 6 0
BBX 5 7 0 0
BITMAP
70
00
70
88
F8
80
78
ENDCHAR
STARTCHAR 0114
ENCODING 276
SWIDTH 720 0
DWIDTH 6 0
BBX 5 9 0 0
BITMAP
50
70
F8
80
80
F0
80
80
F8
ENDCHAR
STARTCHAR 0115
ENCODING 277
SWIDTH 720 0
DWIDTH 6 0
BBX 5 8 0 0
BITMAP
50
70
00
70
88
F8
80
78
ENDCHAR
STARTCHAR 0116
ENCODING 278
SWIDTH 720 0
DWIDTH 6 0
BBX 5 9 0 0
BITMAP
20
00
F8
80
80
F0
80
80
F8
ENDCHAR
STARTCHAR 0117
ENCODING 279
SWIDTH 720 0
DWIDTH 6 0
BBX 5 7 0 0
BITMAP
20
00
70
88
F8
80
78
ENDCHAR
STARTCHAR 0118
ENCODING 280
SWIDTH 720 0
DWIDTH 6 0
BBX 5 9 0 -2
BITMAP
F8
80
80
F0
80
80
F8
10
08
ENDCHAR
STARTCHAR 0119
ENCODING 281
SWIDTH 720 0
DWIDTH 6 0
BBX 5 7 0 -2
BITMAP
70
88
F8
80
78
10
08
ENDCHAR
STARTCHAR 011A
ENCODING 282
SWIDTH 720 0
DWIDTH 6 0
BBX 5 9 0 0
BITMAP
50
20
F8
80
80
F0
80
80
F8
ENDCHAR
STARTCHAR 011B
ENCODING 283
SWIDTH 720 0
DWIDTH 6 0
BBX 5 8 0 0
BITMAP
50
20
00
70
88
F8
80
78
ENDCHAR
STARTCHAR 011C
ENCODING 284
SWIDTH 720 0
DWIDTH 6 0
BBX 5 9 0 0
BITMAP
20
50
70
80
80
B8
88
88
70
ENDCHAR
STARTCHAR 011D
ENCODING 285
SWIDTH 720 0
DWIDTH 6 0
BBX 5 10 0 -2
BITMAP
20
50
00
70
88
88
88
78
08
70
ENDCHAR
STARTCHAR 011E
ENCODING 286
SWIDTH 720 0
DWIDTH 6 0
BBX 5 9 0 0
BITMAP
50
70
70
80
80
B8
88
88
70
ENDCHAR
STARTCHAR 011F
ENCODING 287
SWIDTH 720 0
DWIDTH 6 0
BBX 5 10 0 -2
BITMAP
50
70
00
70
88
88
88
78
08
70
ENDCHAR
STARTCHAR 0120
ENCODING 288
SWIDTH 720 0
DWIDTH 6 0
BBX 5 9 0 0
BITMAP
20
00
70
80
80
B8
88
88
70
ENDCHAR
STARTCHAR 0121
ENCODING 289
SWIDTH 720 0
DWIDTH 6 0
BBX 5 9 0 -2
BITMAP
20
00
70
88
88
88
78
08
70
ENDCHAR
STARTCHAR 0122
ENCODING 290
SWIDTH 720 0
DWIDTH 6 0
BBX 5 9 0 -2
BITMAP
70
80
80
B8
88
88
70
20
40
ENDCHAR
STARTCHAR 0123
ENCODING 291
SWIDTH 720 0
DWIDTH 6 0
BBX 5 10 0 -2
BITMAP
20
20
00
70
88
88
88
78
08
70
ENDCHAR
STARTCHAR 0124
ENCODING 292
SWIDTH 720 0
DWIDTH 6 0
BBX 5 9 0 0
BITMAP
20
50
88
88
88
F8
88
88
88
ENDCHAR
STARTCHAR 0125
ENCODING 293
SWIDTH 720 0
DWIDTH 6 0
BBX 5 9 0 0
BITMAP
20
50
80
80
B0
C8
88
88
88
ENDCHAR
STARTCHAR 0126
ENCODING 294
SWIDTH 720 0
DWIDTH 6 0
BBX 5 7 0 0
BITMAP
88
F8
88
F8
88
88
88
ENDCHAR
STARTCHAR 0127
ENCODING 295
SWIDTH 720 0
DWIDTH 6 0
BBX 5 7 0 0
BITMAP
80
C0
B0
C8
88
88
88
ENDCHAR
STARTCHAR 0128
ENCODING 296
SWIDTH 720 0
DWIDTH 6 0
BBX 5 9 0 0
BITMAP
28
50
F8
20
20
20
20
20
F8
ENDCHAR
STARTCHAR 0129
ENCODING 297
SWIDTH 720 0
DWIDTH 6 0
BBX 5 8 0 0
BITMAP
28
50
00
F8
20
20
20
F8
ENDCHAR
STARTCHAR 012A
ENCODING 298
SWIDTH 720 0
DWIDTH 6 0
BBX 5 9 0 0
BITMAP
70
00
F8
20
20
20
20
20
F8
ENDCHAR
STARTCHAR 012B
ENCODING 299
SWIDTH 720 0
DWIDTH 6 0
BBX 5 7 0 0
BITMAP
70
00
F8
20
20
20
F8
ENDCHAR
STARTCHAR 012C
ENCODING 300
SWIDTH 720 0
DWIDTH 6 0
BBX 5 9 0 0
BITMAP
50
70
F8
20
20
20
20
20
F8
ENDCHAR
STARTCHAR 012D
ENCODING 301
SWIDTH 720 0
DWIDTH 6 0
BBX 5 5 0 0
BITMAP
F8
20
20
20
F8
ENDCHAR
STARTCHAR 012E
ENCODING 302
SWIDTH 720 0
DWIDTH 6 0
BBX 5 9 0 -2
BITMAP
F8
20
20
20
20
20
F8
10
08
ENDCHAR
STARTCHAR 012F
ENCODING 303
SWIDTH 720 0
DWIDTH 6 0
BBX 5 7 0 -2
BITMAP
F8
20
20
20
F8
10
08
ENDCHAR
STARTCHAR 0130
ENCODING 304
SWIDTH 720 0
DWIDTH 6 0
BBX 5 9 0 0
BITMAP
20
00
F8
20
20
20
20
20
F8
ENDCHAR
STARTCHAR 0131
ENCODING 305
SWIDTH 720 0
DWIDTH 6 0
BBX 5 5 0 0
BITMAP
F8
20
20
20
F8
ENDCHAR
STARTCHAR 0132
ENCODING 306
SWIDTH 720 0
DWIDTH 6 0
BBX 5 7 0 0
BITMAP
98
88
88
88
A8
A8
90
ENDCHAR
STARTCHAR 0133
ENCODING 307
SWIDTH 720 0
DWIDTH 6 0
BBX 5 5 0 0
BITMAP
88
88
A8
A8
90
ENDCHAR
STARTCHAR 0134
ENCODING 308
SWIDTH 720 0
DWIDTH 6 0
BBX 5 9 0 0
BITMAP
20
50
18
08
08
08
88
88
70
ENDCHAR
STARTCHAR 0135
ENCODING 309
SWIDTH 720 0
DWIDTH 6 0
BBX 5 8 0 0
BITMAP
20
50
00
08
08
88
88
70
ENDCHAR
STARTCHAR 0136
ENCODING 310
SWIDTH 720 0
DWIDTH 6 0
BBX 5 9 0 -2
BITMAP
88
90
A0
C0
A0
90
88
20
40
ENDCHAR
STARTCHAR 0137
ENCODING 311
SWIDTH 720 0
DWIDTH 6 0
BBX 5 9 0 -2
BITMAP
80
80
88
90
E0
90
88
20
40
ENDCHAR
STARTCHAR 0138
ENCODING 312
SWIDTH 720 0
DWIDTH 6 0
BBX 5 5 0 0
BITMAP
88
90
E0
90
88
ENDCHAR
STARTCHAR 0139
ENCODING 313
SWIDTH 720 0
DWIDTH 6 0
BBX 5 9 0 0
BITMAP
10
20
80
80
80
80
80
80
F8
ENDCHAR
STARTCHAR 013A
ENCODING 314
SWIDTH 720 0
DWIDTH 6 0
BBX 5 8 0 0
BITMAP
10
20
00
80
80
80
80
F8
ENDCHAR
STARTCHAR 013B
ENCODING 315
SWIDTH 720 0
DWIDTH 6 0
BBX 5 9 0 -2
BITMAP
80
80
80
80
80
80
F8
20
40
ENDCHAR
STARTCHAR 013C
ENCODING 316
SWIDTH 720 0
DWIDTH 6 0
BBX 5 7 0 -2
BITMAP
80
80
80
80
F8
20
40
ENDCHAR
STARTCHAR 013D
ENCODING 317
SWIDTH 720 0
DWIDTH 6 0
BBX 5 7 0 0
BITMAP
88
88
80
80
80
80
F8
ENDCHAR
STARTCHAR 013E
ENCODING 318
SWIDTH 720 0
DWIDTH 6 0
BBX 5 7 0 0
BITMAP
08
08
80
80
80
80
F8
ENDCHAR
STARTCHAR 013F
ENCODING 319
SWIDTH 720 0
DWIDTH 6 0
BBX 5 7 0 0
BITMAP
80
80
80
A0
80
80
F8
ENDCHAR
STARTCHAR 0140
ENCODING 320
SWIDTH 720 0
DWIDTH 6 0
BBX 5 5 0 0
BITMAP
80
A0
80
80
F8
ENDCHAR
STARTCHAR 0141
ENCODING 321
SWIDTH 720 0
DWIDTH 6 0
BBX 6 7 -1 0
BITMAP
40
40
50
60
C0
40
7C
ENDCHAR
STARTCHAR 0142
ENCODING 322
SWIDTH 720 0
DWIDTH 6 0
BBX 6 5 -1 0
BITMAP
40
50
60
C0
7C
ENDCHAR
STARTCHAR 0143
ENCODING 323
SWIDTH 720 0
DWIDTH 6 0
BBX 5 9 0 0
BITMAP
10
20
C8
C8
A8
A8
A8
98
98
ENDCHAR
STARTCHAR 0144
ENCODING 324
SWIDTH 720 0
DWIDTH 6 0
BBX 5 8 0 0
BITMAP
10
20
00
B0
C8
88
88
88
ENDCHAR
STARTCHAR 0145
ENCODING 325
SWIDTH 720 0
DWIDTH 6 0
BBX 5 9 0 -2
BITMAP
C8
C8
A8
A8
A8
98
98
20
40
ENDCHAR
STARTCHAR 0146
ENCODING 326
SWIDTH 720 0
DWIDTH 6 0
BBX 5 7 0 -2
BITMAP
B0
C8
88
88
88
20
40
ENDCHAR
STARTCHAR 0147
ENCODING 327
SWIDTH 720 0
DWIDTH 6 0
BBX 5 9 0 0
BITMAP
50
20
C8
C8
A8
A8
A8
98
98
ENDCHAR
STARTCHAR 0148
ENCODING 328
SWIDTH 720 0
DWIDTH 6 0
BBX 5 8 0 0
BITMAP
50
20
00
B0
C8
88
88
88
ENDCHAR
STARTCHAR 0149
ENCODING 329
SWIDTH 720 0
DWIDTH 6 0
BBX 5 6 0 0
BITMAP
80
B0
28
28
28
28
ENDCHAR
STARTCHAR 014A
ENCODING 330
SWIDTH 720 0
DWIDTH 6 0
BBX 5 7 0 0
BITMAP
B0
C8
88
88
88
88
90
ENDCHAR
STARTCHAR 014B
ENCODING 331
SWIDTH 720 0
DWIDTH 6 0
BBX 5 6 0 -1
BITMAP
B0
C8
88
88
88
10
ENDCHAR
STARTCHAR 014C
ENCODING 332
SWIDTH 720 0
DWIDTH 6 0
BBX 5 9 0 0
BITMAP
70
00
70
88
88
88
88
88
70
ENDCHAR
STARTCHAR 014D
ENCODING 333
SWIDTH 720 0
DWIDTH 6 0
BBX 5 7 0 0
BITMAP
70
00
70
88
88
88
70
ENDCHAR
STARTCHAR 014E
ENCODING 334
SWIDTH 720 0
DWIDTH 6 0
BBX 5 9 0 0
BITMAP
50
70
70
88
88
88
88
88
70
ENDCHAR
STARTCHAR 014F
ENCODING 335
SWIDTH 720 0
DWIDTH 6 0
BBX 5 8 0 0
BITMAP
50
70
00
70
88
88
88
70
ENDCHAR
STARTCHAR 0150
ENCODING 336
SWIDTH 720 0
DWIDTH 6 0
BBX 5 9 0 0
BITMAP
50
50
70
88
88
88
88
88
70
ENDCHAR
STARTCHAR 0151
ENCODING 337
SWIDTH 720 0
DWIDTH 6 0
BBX 5 8 0 0
BITMAP
50
50
00
70
88
88
88
70
ENDCHAR
STARTCHAR 0152
ENCODING 338
SWIDTH 720 0
DWIDTH 6 0
BBX 5 7 0 0
BITMAP
58
A0
A0
B8
A0
A0
58
ENDCHAR
STARTCHAR 0153
ENCODING 339
SWIDTH 720 0
DWIDTH 6 0
BBX 5 5 0 0
BITMAP
50
A8
B0
A0
58
ENDCHAR
STARTCHAR 0154
ENCODING 340
SWIDTH 720 0
DWIDTH 6 0
BBX 5 9 0 0
BITMAP
10
20
F0
88
88
F0
A0
90
88
ENDCHAR
STARTCHAR 0155
ENCODING 341
SWIDTH 720 0
DWIDTH 6 0
BBX 5 8 0 0
BITMAP
10
20
00
98
A0
C0
80
80
ENDCHAR
STARTCHAR 0156
ENCODING 342
SWIDTH 720 0
DWIDTH 6 0
BBX 5 9 0 -2
BITMAP
F0
88
88
F0
A0
90
88
20
40
ENDCHAR
STARTCHAR 0157
ENCODING 343
SWIDTH 720 0
DWIDTH 6 0
BBX 5 7 0 -2
BITMAP
98
A0
C0
80
80
20
40
ENDCHAR
STARTCHAR 0158
ENCODING 344
SWIDTH 720 0
DWIDTH 6 0
BBX 5 9 0 0
BITMAP
50
20
F0
88
88
F0
A0
90
88
ENDCHAR
STARTCHAR 0159
ENCODING 345
SWIDTH 720 0
DWIDTH 6 0
BBX 5 8 0 0
BITMAP
50
20
00
98
A0
C0
80
80
ENDCHAR
STARTCHAR 015A
ENCODING 346
SWIDTH 720 0
DWIDTH 6 0
BBX 5 9 0 0
BITMAP
10
20
70
88
80
70
08
88
70
ENDCHAR
STARTCHAR 015B
ENCODING 347
SWIDTH 720 0
DWIDTH 6 0
BBX 5 8 0 0
BITMAP
10
20
00
78
80
70
08
F0
ENDCHAR
STARTCHAR 015C
ENCODING 348
SWIDTH 720 0
DWIDTH 6 0
BBX 5 9 0 0
BITMAP
20
50
70
88
80
70
08
88
70
ENDCHAR
STARTCHAR 015D
ENCODING 349
SWIDTH 720 0
DWIDTH 6 0
BBX 5 8 0 0
BITMAP
20
50
00
78
80
70
08
F0
ENDCHAR
STARTCHAR 015E
ENCODING 350
SWIDTH 720 0
DWIDTH 6 0
BBX 5 9 0 -2
BITMAP
70
88
80
70
08
88
70
20
40
ENDCHAR
STARTCHAR 015F
ENCODING 351
SWIDTH 720 0
DWIDTH 6 0
BBX 5 7 0 -2
BITMAP
78
80
70
08
F0
20
40
ENDCHAR
STARTCHAR 0160
ENCODING 352
SWIDTH 720 0
DWIDTH 6 0
BBX 5 9 0 0
BITMAP
50
20
70
88
80
70
08
88
70
ENDCHAR
STARTCHAR 0161
ENCODING 353
SWIDTH 720 0
DWIDTH 6 0
BBX 5 8 0 0
BITMAP
50
20
00
78
80
70
08
F0
ENDCHAR
STARTCHAR 0162
ENCODING 354
SWIDTH 720 0
DWIDTH 6 0
BBX 5 9 0 -2
BITMAP
F8
20
20
20
20
20
20
20
40
ENDCHAR
STARTCHAR 0163
ENCODING 355
SWIDTH 720 0
DWIDTH 6 0
BBX 5 9 0 -2
BITMAP
20
20
F8
20
20
20
30
20
40
ENDCHAR
STARTCHAR 0164
ENCODING 356
SWIDTH 720 0
DWIDTH 6 0
BBX 5 9 0 0
BITMAP
50
20
F8
20
20
20
20
20
20
ENDCHAR
STARTCHAR 0165
ENCODING 357
SWIDTH 720 0
DWIDTH 6 0
BBX 5 7 0 0
BITMAP
28
28
F0
20
20
20
30
ENDCHAR
STARTCHAR 0166
ENCODING 358
SWIDTH 720 0
DWIDTH 6 0
BBX 5 7 0 0
BITMAP
F8
20
20
70
20
20
20
ENDCHAR
STARTCHAR 0167
ENCODING 359
SWIDTH 720 0
DWIDTH 6 0
BBX 5 7 0 0
BITMAP
20
20
F8
20
70
20
30
ENDCHAR
STARTCHAR 0168
ENCODING 360
SWIDTH 720 0
DWIDTH 6 0
BBX 5 9 0 0
BITMAP
28
50
88
88
88
88
88
88
70
ENDCHAR
STARTCHAR 0169
ENCODING 361
SWIDTH 720 0
DWIDTH 6 0
BBX 5 8 0 0
BITMAP
28
50
00
88
88
88
88
70
ENDCHAR
STARTCHAR 016A
ENCODING 362
SWIDTH 720 0
DWIDTH 6 0
BBX 5 9 0 0
BITMAP
70
00
88
88
88
88
88
88
70
ENDCHAR
STARTCHAR 016B
ENCODING 363
SWIDTH 720 0
DWIDTH 6 0
BBX 5 7 0 0
BITMAP
70
00
88
88
88
88
70
ENDCHAR
STARTCHAR 016C
ENCODING 364
SWIDTH 720 0
DWIDTH 6 0
BBX 5 9 0 0
BITMAP
50
70
88
88
88
88
88
88
70
ENDCHAR
STARTCHAR 016D
ENCODING 365
SWIDTH 720 0
DWIDTH 6 0
BBX 5 8 0 0
BITMAP
50
70
00
88
88
88
88
70
ENDCHAR
STARTCHAR 016E
ENCODING 366
SWIDTH 720 0
DWIDTH 6 0
BBX 5 9 0 0
BITMAP
20
50
A8
88
88
88
88
88
70
ENDCHAR
STARTCHAR 016F
ENCODING 367
SWIDTH 720 0
DWIDTH 6 0
BBX 5 8 0 0
BITMAP
20
50
20
88
88
88
88
70
ENDCHAR
STARTCHAR 0170
ENCODING 368
SWIDTH 720 0
DWIDTH 6 0
BBX 5 9 0 0
BITMAP
50
50
88
88
88
88
88
88
70
ENDCHAR
STARTCHAR 0171
ENCODING 369
SWIDTH 720 0
DWIDTH 6 0
BBX 5 8 0 0
BITMAP
50
50
00
88
88
88
88
70
ENDCHAR
STARTCHAR 0172
ENCODING 370
SWIDTH 720 0
DWIDTH 6 0
BBX 5 9 0 -2
BITMAP
88
88
88
88
88
88
70
10
08
ENDCHAR
STARTCHAR 0173
ENCODING 371
SWIDTH 720 0
DWIDTH 6 0
BBX 5 7 0 -2
BITMAP
88
88
88
88
70
10
08
ENDCHAR
STARTCHAR 0174
ENCODING 372
SWIDTH 720 0
DWIDTH 6 0
BBX 5 9 0 0
BITMAP
20
50
A8
A8
A8
A8
A8
50
50
ENDCHAR
STARTCHAR 0175
ENCODING 373
SWIDTH 720 0
DWIDTH 6 0
BBX 5 8 0 0
BITMAP
20
50
00
88
88
A8
A8
50
ENDCHAR
STARTCHAR 0176
ENCODING 374
SWIDTH 720 0
DWIDTH 6 0
BBX 5 9 0 0
BITMAP
20
50
88
88
88
70
20
20
20
ENDCHAR
STARTCHAR 0177
ENCODING 375
SWIDTH 720 0
DWIDTH 6 0
BBX 5 10 0 -2
BITMAP
20
50
00
88
88
50
50
20
20
C0
ENDCHAR
STARTCHAR 0178
ENCODING 376
SWIDTH 720 0
DWIDTH 6 0
BBX 5 9 0 0
BITMAP
50
00
88
88
88
70
20
20
20
ENDCHAR
STARTCHAR 0179
ENCODING 377
SWIDTH 720 0
DWIDTH 6 0
BBX 5 9 0 0
BITMAP
10
20
F8
08
10
20
40
80
F8
ENDCHAR
STARTCHAR 017A
ENCODING 378
SWIDTH 720 0
DWIDTH 6 0
BBX 5 8 0 0
BITMAP
10
20
00
F8
08
70
80
F8
ENDCHAR
STARTCHAR 017B
ENCODING 379
SWIDTH 720 0
DWIDTH 6 0
BBX 5 9 0 0
BITMAP
20
00
F8
08
10
20
40
80
F8
ENDCHAR
STARTCHAR 017C
ENCODING 380
SWIDTH 720 0
DWIDTH 6 0
BBX 5 7 0 0
BITMAP
20
00
F8
08
70
80
F8
ENDCHAR
STARTCHAR 017D
ENCODING 381
SWIDTH 720 0
DWIDTH 6 0
BBX 5 9 0 0
BITMAP
50
20
F8
08
10
20
40
80
F8
ENDCHAR
STARTCHAR 017E
ENCODING 382
SWIDTH 720 0
DWIDTH 6 0
BBX 5 8 0 0
BITMAP
50
20
00
F8
08
70
80
F8
ENDCHAR
STARTCHAR 017F
ENCODING 383
SWIDTH 720 0
DWIDTH 6 0
BBX 3 8 1 -1
BITMAP
20
40
40
40
40
40
40
80
ENDCHAR
STARTCHAR 0180
ENCODING 384
SWIDTH 720 0
DWIDTH 6 0
BBX 5 7 0 0
BITMAP
40
E0
70
48
48
48
70
ENDCHAR
STARTCHAR 0181
ENCODING 385
SWIDTH 720 0
DWIDTH 6 0
BBX 5 7 0 0
BITMAP
F0
48
48
70
48
48
70
ENDCHAR
STARTCHAR 0186
ENCODING 390
SWIDTH 720 0
DWIDTH 6 0
BBX 5 7 0 0
BITMAP
70
88
88
08
88
88
70
ENDCHAR
STARTCHAR 0189
ENCODING 393
SWIDTH 720 0
DWIDTH 6 0
BBX 5 7 0 0
BITMAP
E0
90
88
E8
88
90
E0
ENDCHAR
STARTCHAR 018A
ENCODING 394
SWIDTH 720 0
DWIDTH 6 0
BBX 5 7 0 0
BITMAP
E0
50
48
48
48
50
60
ENDCHAR
STARTCHAR 018F
ENCODING 399
SWIDTH 720 0
DWIDTH 6 0
BBX 5 7 0 0
BITMAP
70
88
08
F8
88
88
70
ENDCHAR
STARTCHAR 0190
ENCODING 400
SWIDTH 720 0
DWIDTH 6 0
BBX 5 7 0 0
BITMAP
70
88
40
20
40
88
70
ENDCHAR
STARTCHAR 0191
ENCODING 401
SWIDTH 720 0
DWIDTH 6 0
BBX 5 8 0 -1
BITMAP
78
40
40
70
40
40
40
80
ENDCHAR
STARTCHAR 0192
ENCODING 402
SWIDTH 720 0
DWIDTH 6 0
BBX 5 8 0 -1
BITMAP
30
20
F8
20
20
20
20
C0
ENDCHAR
STARTCHAR 0193
ENCODING 403
SWIDTH 720 0
DWIDTH 6 0
BBX 5 8 0 0
BITMAP
08
78
80
80
B8
88
88
70
ENDCHAR
STARTCHAR 0194
ENCODING 404
SWIDTH 720 0
DWIDTH 6 0
BBX 5 8 0 -1
BITMAP
88
88
88
50
50
20
50
20
ENDCHAR
STARTCHAR 0197
ENCODING 407
SWIDTH 720 0
DWIDTH 6 0
BBX 5 7 0 0
BITMAP
F8
20
20
70
20
20
F8
ENDCHAR
STARTCHAR 0198
ENCODING 408
SWIDTH 720 0
DWIDTH 6 0
BBX 5 7 0 0
BITMAP
90
A8
A0
C0
A0
90
88
ENDCHAR
STARTCHAR 0199
ENCODING 409
SWIDTH 720 0
DWIDTH 6 0
BBX 5 7 0 0
BITMAP
C0
80
88
90
E0
90
88
ENDCHAR
STARTCHAR 019D
ENCODING 413
SWIDTH 720 0
DWIDTH 6 0
BBX 5 8 0 -1
BITMAP
C8
C8
A8
A8
A8
98
98
80
ENDCHAR
STARTCHAR 01A0
ENCODING 416
SWIDTH 720 0
DWIDTH 6 0
BBX 5 7 0 0
BITMAP
68
98
90
90
90
90
60
ENDCHAR
STARTCHAR 01A1
ENCODING 417
SWIDTH 720 0
DWIDTH 6 0
BBX 5 5 0 0
BITMAP
68
98
90
90
60
ENDCHAR
STARTCHAR 01AF
ENCODING 431
SWIDTH 720 0
DWIDTH 6 0
BBX 5 7 0 0
BITMAP
98
98
90
90
90
90
60
ENDCHAR
STARTCHAR 01B0
ENCODING 432
SWIDTH 720 0
DWIDTH 6 0
BBX 5 5 0 0
BITMAP
98
98
90
90
60
ENDCHAR
STARTCHAR 01B2
ENCODING 434
SWIDTH 720 0
DWIDTH 6 0
BBX 5 7 0 0
BITMAP
98
88
88
88
88
88
70
ENDCHAR
STARTCHAR 01B3
ENCODING 435
SWIDTH 720 0
DWIDTH 6 0
BBX 5 7 0 0
BITMAP
98
90
90
60
20
20
20
ENDCHAR
STARTCHAR 01B4
ENCODING 436
SWIDTH 720 0
DWIDTH 6 0
BBX 5 7 0 -2
BITMAP
98
90
50
50
20
20
C0
ENDCHAR
STARTCHAR 01B7
ENCODING 439
SWIDTH 720 0
DWIDTH 6 0
BBX 5 8 0 -1
BITMAP
70
08
10
20
10
08
88
70
ENDCHAR
STARTCHAR 01C0
ENCODING 448
SWIDTH 720 0
DWIDTH 6 0
BBX 1 7 2 0
BITMAP
80
80
80
80
80
80
80
ENDCHAR
STARTCHAR 01C1
ENCODING 449
SWIDTH 720 0
DWIDTH 6 0
BBX 3 7 1 0
BITMAP
A0
A0
A0
A0
A0
A0
A0
ENDCHAR
STARTCHAR 01C2
ENCODING 450
SWIDTH 720 0
DWIDTH 6 0
BBX 5 7 0 0
BITMAP
20
20
F8
20
F8
20
20
ENDCHAR
STARTCHAR 01C3
ENCODING 451
SWIDTH 720 0
DWIDTH 6 0
BBX 1 7 2 0
BITMAP
80
80
80
80
80
00
80
ENDCHAR
STARTCHAR 01CD
ENCODING 461
SWIDTH 720 0
DWIDTH 6 0
BBX 5 9 0 0
BITMAP
50
20
70
88
88
F8
88
88
88
ENDCHAR
STARTCHAR 01CE
ENCODING 462
SWIDTH 720 0
DWIDTH 6 0
BBX 5 8 0 0
BITMAP
50
20
00
68
98
88
98
68
ENDCHAR
STARTCHAR 01CF
ENCODING 463
SWIDTH 720 0
DWIDTH 6 0
BBX 5 9 0 0
BITMAP
50
20
F8
20
20
20
20
20
F8
ENDCHAR
STARTCHAR 01D0
ENCODING 464
SWIDTH 720 0
DWIDTH 6 0
BBX 5 8 0 0
BITMAP
50
20
00
F8
20
20
20
F8
ENDCHAR
STARTCHAR 01D1
ENCODING 465
SWIDTH 720 0
DWIDTH 6 0
BBX 5 9 0 0
BITMAP
50
20
70
88
88
88
88
88
70
ENDCHAR
STARTCHAR 01D2
ENCODING 466
SWIDTH 720 0
DWIDTH 6 0
BBX 5 8 0 0
BITMAP
50
20
00
70
88
88
88
70
ENDCHAR
STARTCHAR 01D3
ENCODING 467
SWIDTH 720 0
DWIDTH 6 0
BBX 5 9 0 0
BITMAP
50
20
88
88
88
88
88
88
70
ENDCHAR
STARTCHAR 01D4
ENCODING 468
SWIDTH 720 0
DWIDTH 6 0
BBX 5 8 0 0
BITMAP
50
20
00
88
88
88
88
70
ENDCHAR
STARTCHAR 01E2
ENCODING 482
SWIDTH 720 0
DWIDTH 6 0
BBX 5 9 0 0
BITMAP
70
00
58
A0
A0
F8
A0
A0
B8
ENDCHAR
STARTCHAR 01E3
ENCODING 483
SWIDTH 720 0
DWIDTH 6 0
BBX 5 7 0 0
BITMAP
70
00
70
A8
B0
A0
78
ENDCHAR
STARTCHAR 01E4
ENCODING 484
SWIDTH 720 0
DWIDTH 6 0
BBX 5 7 0 0
BITMAP
70
80
80
B0
90
B8
70
ENDCHAR
STARTCHAR 01E5
ENCODING 485
SWIDTH 720 0
DWIDTH 6 0
BBX 5 7 0 -2
BITMAP
70
88
88
78
08
38
70
ENDCHAR
STARTCHAR 01E6
ENCODING 486
SWIDTH 720 0
DWIDTH 6 0
BBX 5 9 0 0
BITMAP
50
20
70
80
80
B8
88
88
70
ENDCHAR
STARTCHAR 01E7
ENCODING 487
SWIDTH 720 0
DWIDTH 6 0
BBX 5 10 0 -2
BITMAP
50
20
00
70
88
88
88
78
08
70
ENDCHAR
STARTCHAR 01E8
ENCODING 488
SWIDTH 720 0
DWIDTH 6 0
BBX 5 9 0 0
BITMAP
50
20
88
90
A0
C0
A0
90
88
ENDCHAR
STARTCHAR 01E9
ENCODING 489
SWIDTH 720 0
DWIDTH 6 0
BBX 5 8 0 0
BITMAP
50
A0
80
88
90
E0
90
88
ENDCHAR
STARTCHAR 01EA
ENCODING 490
SWIDTH 720 0
DWIDTH 6 0
BBX 5 9 0 -2
BITMAP
70
88
88
88
88
88
70
10
08
ENDCHAR
STARTCHAR 01EB
ENCODING 491
SWIDTH 720 0
DWIDTH 6 0
BBX 5 7 0 -2
BITMAP
70
88
88
88
70
10
08
ENDCHAR
STARTCHAR 01EE
ENCODING 494
SWIDTH 720 0
DWIDTH 6 0
BBX 5 10 0 -1
BITMAP
50
20
70
08
10
20
10
08
88
70
ENDCHAR
STARTCHAR 01EF
ENCODING 495
SWIDTH 720 0
DWIDTH 6 0
BBX 5 9 0 -1
BITMAP
50
20
00
70
08
10
08
88
70
ENDCHAR
STARTCHAR 01F4
ENCODING 500
SWIDTH 720 0
DWIDTH 6 0
BBX 5 9 0 0
BITMAP
10
20
70
80
80
B8
88
88
70
ENDCHAR
STARTCHAR 01F5
ENCODING 501
SWIDTH 720 0
DWIDTH 6 0
BBX 5 10 0 -2
BITMAP
10
20
00
70
88
88
88
78
08
70
ENDCHAR
STARTCHAR 01F8
ENCODING 504
SWIDTH 720 0
DWIDTH 6 0
BBX 5 9 0 0
BITMAP
40
20
C8
C8
A8
A8
A8
98
98
ENDCHAR
STARTCHAR 01F9
ENCODING 505
SWIDTH 720 0
DWIDTH 6 0
BBX 5 8 0 0
BITMAP
40
20
00
B0
C8
88
88
88
ENDCHAR
STARTCHAR 01FC
ENCODING 508
SWIDTH 720 0
DWIDTH 6 0
BBX 5 9 0 0
BITMAP
10
20
58
A0
A0
F8
A0
A0
B8
ENDCHAR
STARTCHAR 01FD
ENCODING 509
SWIDTH 720 0
DWIDTH 6 0
BBX 5 8 0 0
BITMAP
10
20
00
70
A8
B0
A0
78
ENDCHAR
STARTCHAR 01FE
ENCODING 510
SWIDTH 720 0
DWIDTH 6 0
BBX 5 9 0 0
BITMAP
10
20
70
88
98
A8
C8
88
70
ENDCHAR
STARTCHAR 01FF
ENCODING 511
SWIDTH 720 0
DWIDTH 6 0
BBX 5 8 0 0
BITMAP
10
20
00
70
98
A8
C8
70
ENDCHAR
STARTCHAR 0218
ENCODING 536
SWIDTH 720 0
DWIDTH 6 0
BBX 5 9 0 -2
BITMAP
70
88
80
70
08
88
70
20
40
ENDCHAR
STARTCHAR 0219
ENCODING 537
SWIDTH 720 0
DWIDTH 6 0
BBX 5 7 0 -2
BITMAP
78
80
70
08
F0
20
40
ENDCHAR
STARTCHAR 021A
ENCODING 538
SWIDTH 720 0
DWIDTH 6 0
BBX 5 9 0 -2
BITMAP
F8
20
20
20
20
20
20
20
40
ENDCHAR
STARTCHAR 021B
ENCODING 539
SWIDTH 720 0
DWIDTH 6 0
BBX 5 9 0 -2
BITMAP
20
20
F8
20
20
20
30
20
40
ENDCHAR
STARTCHAR 021E
ENCODING 542
SWIDTH 720 0
DWIDTH 6 0
BBX 5 9 0 0
BITMAP
50
20
88
88
88
F8
88
88
88
ENDCHAR
STARTCHAR 021F
ENCODING 543
SWIDTH 720 0
DWIDTH 6 0
BBX 5 9 0 0
BITMAP
50
20
80
80
B0
C8
88
88
88
ENDCHAR
STARTCHAR 0224
ENCODING 548
SWIDTH 720 0
DWIDTH 6 0
BBX 5 8 0 -1
BITMAP
F8
08
10
20
40
80
F8
08
ENDCHAR
STARTCHAR 0225
ENCODING 549
SWIDTH 720 0
DWIDTH 6 0
BBX 5 6 0 -1
BITMAP
F8
08
70
80
F8
08
ENDCHAR
STARTCHAR 0226
ENCODING 550
SWIDTH 720 0
DWIDTH 6 0
BBX 5 9 0 0
BITMAP
20
00
70
88
88
F8
88
88
88
ENDCHAR
STARTCHAR 0227
ENCODING 551
SWIDTH 720 0
DWIDTH 6 0
BBX 5 7 0 0
BITMAP
20
00
68
98
88
98
68
ENDCHAR
STARTCHAR 0228
ENCODING 552
SWIDTH 720 0
DWIDTH 6 0
BBX 5 9 0 -2
BITMAP
F8
80
80
F0
80
80
F8
20
40
ENDCHAR
STARTCHAR 0229
ENCODING 553
SWIDTH 720 0
DWIDTH 6 0
BBX 5 7 0 -2
BITMAP
70
88
F8
80
78
20
40
ENDCHAR
STARTCHAR 022E
ENCODING 558
SWIDTH 720 0
DWIDTH 6 0
BBX 5 9 0 0
BITMAP
20
00
70
88
88
88
88
88
70
ENDCHAR
STARTCHAR 022F
ENCODING 559
SWIDTH 720 0
DWIDTH 6 0
BBX 5 7 0 0
BITMAP
20
00
70
88
88
88
70
ENDCHAR
STARTCHAR 0244
ENCODING 580
SWIDTH 720 0
DWIDTH 6 0
BBX 5 7 0 0
BITMAP
88
88
88
F8
88
88
70
ENDCHAR
STARTCHAR 0253
ENCODING 595
SWIDTH 720 0
DWIDTH 6 0
BBX 5 7 0 0
BITMAP
C0
80
B0
C8
88
C8
B0
ENDCHAR
STARTCHAR 0254
ENCODING 596
SWIDTH 720 0
DWIDTH 6 0
BBX 5 5 0 0
BITMAP
70
88
08
88
70
ENDCHAR
STARTCHAR 0256
ENCODING 598
SWIDTH 720 0
DWIDTH 6 0
BBX 5 8 0 -1
BITMAP
10
10
70
90
90
90
70
08
ENDCHAR
STARTCHAR 0257
ENCODING 599
SWIDTH 720 0
DWIDTH 6 0
BBX 5 7 0 0
BITMAP
18
10
70
90
90
90
70
ENDCHAR
STARTCHAR 0259
ENCODING 601
SWIDTH 720 0
DWIDTH 6 0
BBX 5 5 0 0
BITMAP
F0
08
F8
88
70
ENDCHAR
STARTCHAR 025B
ENCODING 603
SWIDTH 720 0
DWIDTH 6 0
BBX 5 5 0 0
BITMAP
70
88
40
88
70
ENDCHAR
STARTCHAR 0260
ENCODING 608
SWIDTH 720 0
DWIDTH 6 0
BBX 5 7 0 -2
BITMAP
78
90
90
90
70
10
70
ENDCHAR
STARTCHAR 0263
ENCODING 611
SWIDTH 720 0
DWIDTH 6 0
BBX 5 7 0 -2
BITMAP
88
88
50
50
20
50
20
ENDCHAR
STARTCHAR 0268
ENCODING 616
SWIDTH 720 0
DWIDTH 6 0
BBX 5 5 0 0
BITMAP
F8
20
70
20
F8
ENDCHAR
STARTCHAR 0272
ENCODING 626
SWIDTH 720 0
DWIDTH 6 0
BBX 5 6 0 -1
BITMAP
50
68
48
48
48
C0
ENDCHAR
STARTCHAR 0289
ENCODING 649
SWIDTH 720 0
DWIDTH 6 0
BBX 5 5 0 0
BITMAP
88
88
F8
88
70
ENDCHAR
STARTCHAR 028B
ENCODING 651
SWIDTH 720 0
DWIDTH 6 0
BBX 5 5 0 0
BITMAP
98
88
88
88
70
ENDCHAR
STARTCHAR 0292
ENCODING 658
SWIDTH 720 0
DWIDTH 6 0
BBX 5 6 0 -1
BITMAP
70
08
10
08
88
70
ENDCHAR
STARTCHAR 0294
ENCODING 660
SWIDTH 720 0
DWIDTH 6 0
BBX 5 7 0 0
BITMAP
70
88
08
08
30
20
20
ENDCHAR
STARTCHAR 0295
ENCODING 661
SWIDTH 720 0
DWIDTH 6 0
BBX 5 7 0 0
BITMAP
70
88
80
80
60
20
20
ENDCHAR
STARTCHAR 02AC
ENCODING 684
SWIDTH 720 0
DWIDTH 6 0
BBX 5 7 0 0
BITMAP
A8
A8
50
00
A8
A8
50
ENDCHAR
STARTCHAR 02BB
ENCODING 699
SWIDTH 720 0
DWIDTH 6 0
BBX 2 2 1 6
BITMAP
40
80
ENDCHAR
STARTCHAR 02BC
ENCODING 700
SWIDTH 720 0
DWIDTH 6 0
BBX 2 2 1 6
BITMAP
80
40
ENDCHAR
STARTCHAR 0386
ENCODING 902
SWIDTH 720 0
DWIDTH 6 0
BBX 5 7 0 0
BITMAP
B0
C8
48
78
48
48
48
ENDCHAR
STARTCHAR 0388
ENCODING 904
SWIDTH 720 0
DWIDTH 6 0
BBX 5 7 0 0
BITMAP
B8
A0
20
38
20
20
38
ENDCHAR
STARTCHAR 0389
ENCODING 905
SWIDTH 720 0
DWIDTH 6 0
BBX 5 7 0 0
BITMAP
A8
A8
28
38
28
28
28
ENDCHAR
STARTCHAR 038A
ENCODING 906
SWIDTH 720 0
DWIDTH 6 0
BBX 5 7 0 0
BITMAP
B8
90
10
10
10
10
38
ENDCHAR
STARTCHAR 038C
ENCODING 908
SWIDTH 720 0
DWIDTH 6 0
BBX 5 7 0 0
BITMAP
B0
C8
48
48
48
48
30
ENDCHAR
STARTCHAR 038E
ENCODING 910
SWIDTH 720 0
DWIDTH 6 0
BBX 5 7 0 0
BITMAP
A8
A8
28
38
10
10
10
ENDCHAR
STARTCHAR 038F
ENCODING 911
SWIDTH 720 0
DWIDTH 6 0
BBX 5 7 0 0
BITMAP
F0
88
88
88
88
50
D8
ENDCHAR
STARTCHAR 0390
ENCODING 912
SWIDTH 720 0
DWIDTH 6 0
BBX 5 8 0 0
BITMAP
20
A8
00
F8
20
20
20
F8
ENDCHAR
STARTCHAR 0391
ENCODING 913
SWIDTH 720 0
DWIDTH 6 0
BBX 5 7 0 0
BITMAP
70
88
88
F8
88
88
88
ENDCHAR
STARTCHAR 0392
ENCODING 914
SWIDTH 720 0
DWIDTH 6 0
BBX 5 7 0 0
BITMAP
F0
88
88
F0
88
88
F0
ENDCHAR
STARTCHAR 0393
ENCODING 915
SWIDTH 720 0
DWIDTH 6 0
BBX 5 7 0 0
BITMAP
F8
80
80
80
80
80
80
ENDCHAR
STARTCHAR 0394
ENCODING 916
SWIDTH 720 0
DWIDTH 6 0
BBX 5 7 0 0
BITMAP
20
50
50
50
88
88
F8
ENDCHAR
STARTCHAR 0395
ENCODING 917
SWIDTH 720 0
DWIDTH 6 0
BBX 5 7 0 0
BITMAP
F8
80
80
F0
80
80
F8
ENDCHAR
STARTCHAR 0396
ENCODING 918
SWIDTH 720 0
DWIDTH 6 0
BBX 5 7 0 0
BITMAP
F8
08
10
20
40
80
F8
ENDCHAR
STARTCHAR 0397
ENCODING 919
SWIDTH 720 0
DWIDTH 6 0
BBX 5 7 0 0
BITMAP
88
88
88
F8
88
88
88
ENDCHAR
STARTCHAR 0398
ENCODING 920
SWIDTH 720 0
DWIDTH 6 0
BBX 5 7 0 0
BITMAP
70
88
88
F8
88
88
70
ENDCHAR
STARTCHAR 0399
ENCODING 921
SWIDTH 720 0
DWIDTH 6 0
BBX 5 7 0 0
BITMAP
F8
20
20
20
20
20
F8
ENDCHAR
STARTCHAR 039A
ENCODING 922
SWIDTH 720 0
DWIDTH 6 0
BBX 5 7 0 0
BITMAP
88
90
A0
C0
A0
90
88
ENDCHAR
STARTCHAR 039B
ENCODING 923
SWIDTH 720 0
DWIDTH 6 0
BBX 5 7 0 0
BITMAP
20
50
50
50
88
88
88
ENDCHAR
STARTCHAR 039C
ENCODING 924
SWIDTH 720 0
DWIDTH 6 0
BBX 5 7 0 0
BITMAP
88
D8
D8
A8
A8
88
88
ENDCHAR
STARTCHAR 039D
ENCODING 925
SWIDTH 720 0
DWIDTH 6 0
BBX 5 7 0 0
BITMAP
C8
C8
A8
A8
A8
98
98
ENDCHAR
STARTCHAR 039E
ENCODING 926
SWIDTH 720 0
DWIDTH 6 0
BBX 5 7 0 0
BITMAP
F8
00
00
70
00
00
F8
ENDCHAR
STARTCHAR 039F
ENCODING 927
SWIDTH 720 0
DWIDTH 6 0
BBX 5 7 0 0
BITMAP
70
88
88
88
88
88
70
ENDCHAR
STARTCHAR 03A0
ENCODING 928
SWIDTH 720 0
DWIDTH 6 0
BBX 5 7 0 0
BITMAP
F8
88
88
88
88
88
88
ENDCHAR
STARTCHAR 03A1
ENCODING 929
SWIDTH 720 0
DWIDTH 6 0
BBX 5 7 0 0
BITMAP
F0
88
88
F0
80
80
80
ENDCHAR
STARTCHAR 03A3
ENCODING 931
SWIDTH 720 0
DWIDTH 6 0
BBX 5 7 0 0
BITMAP
F8
80
40
20
40
80
F8
ENDCHAR
STARTCHAR 03A4
ENCODING 932
SWIDTH 720 0
DWIDTH 6 0
BBX 5 7 0 0
BITMAP
F8
20
20
20
20
20
20
ENDCHAR
STARTCHAR 03A5
ENCODING 933
SWIDTH 720 0
DWIDTH 6 0
BBX 5 7 0 0
BITMAP
88
88
88
70
20
20
20
ENDCHAR
STARTCHAR 03A6
ENCODING 934
SWIDTH 720 0
DWIDTH 6 0
BBX 5 7 0 0
BITMAP
20
70
A8
A8
A8
70
20
ENDCHAR
STARTCHAR 03A7
ENCODING 935
SWIDTH 720 0
DWIDTH 6 0
BBX 5 7 0 0
BITMAP
88
88
50
20
50
88
88
ENDCHAR
STARTCHAR 03A8
ENCODING 936
SWIDTH 720 0
DWIDTH 6 0
BBX 5 7 0 0
BITMAP
A8
A8
A8
70
20
20
20
ENDCHAR
STARTCHAR 03A9
ENCODING 937
SWIDTH 720 0
DWIDTH 6 0
BBX 5 7 0 0
BITMAP
70
88
88
88
88
50
D8
ENDCHAR
STARTCHAR 03AA
ENCODING 938
SWIDTH 720 0
DWIDTH 6 0
BBX 5 9 0 0
BITMAP
50
00
F8
20
20
20
20
20
F8
ENDCHAR
STARTCHAR 03AB
ENCODING 939
SWIDTH 720 0
DWIDTH 6 0
BBX 5 9 0 0
BITMAP
50
00
88
88
88
70
20
20
20
ENDCHAR
STARTCHAR 03AC
ENCODING 940
SWIDTH 720 0
DWIDTH 6 0
BBX 5 8 0 0
BITMAP
20
20
00
68
98
88
98
68
ENDCHAR
STARTCHAR 03AD
ENCODING 941
SWIDTH 720 0
DWIDTH 6 0
BBX 4 8 0 0
BITMAP
20
20
00
70
80
60
80
70
ENDCHAR
STARTCHAR 03AE
ENCODING 942
SWIDTH 720 0
DWIDTH 6 0
BBX 5 9 0 -1
BITMAP
20
20
00
B0
C8
88
88
88
08
ENDCHAR
STARTCHAR 03AF
ENCODING 943
SWIDTH 720 0
DWIDTH 6 0
BBX 5 8 0 0
BITMAP
20
20
00
F8
20
20
20
F8
ENDCHAR
STARTCHAR 03B0
ENCODING 944
SWIDTH 720 0
DWIDTH 6 0
BBX 5 8 0 0
BITMAP
20
A8
00
88
88
88
88
70
ENDCHAR
STARTCHAR 03B1
ENCODING 945
SWIDTH 720 0
DWIDTH 6 0
BBX 5 5 0 0
BITMAP
68
98
88
98
68
ENDCHAR
STARTCHAR 03B2
ENCODING 946
SWIDTH 720 0
DWIDTH 6 0
BBX 5 8 0 -1
BITMAP
70
88
88
B0
88
C8
B0
80
ENDCHAR
STARTCHAR 03B3
ENCODING 947
SWIDTH 720 0
DWIDTH 6 0
BBX 5 6 0 -1
BITMAP
88
88
88
70
20
20
ENDCHAR
STARTCHAR 03B4
ENCODING 948
SWIDTH 720 0
DWIDTH 6 0
BBX 5 7 0 0
BITMAP
78
80
70
88
88
88
70
ENDCHAR
STARTCHAR 03B5
ENCODING 949
SWIDTH 720 0
DWIDTH 6 0
BBX 5 5 0 0
BITMAP
78
80
60
80
78
ENDCHAR
STARTCHAR 03B6
ENCODING 950
SWIDTH 720 0
DWIDTH 6 0
BBX 5 8 0 -1
BITMAP
F8
08
30
40
80
80
70
08
ENDCHAR
STARTCHAR 03B7
ENCODING 951
SWIDTH 720 0
DWIDTH 6 0
BBX 5 6 0 -1
BITMAP
B0
C8
88
88
88
08
ENDCHAR
STARTCHAR 03B8
ENCODING 952
SWIDTH 720 0
DWIDTH 6 0
BBX 5 5 0 0
BITMAP
70
88
F8
88
70
ENDCHAR
STARTCHAR 03B9
ENCODING 953
SWIDTH 720 0
DWIDTH 6 0
BBX 5 5 0 0
BITMAP
F8
20
20
20
F8
ENDCHAR
STARTCHAR 03BA
ENCODING 954
SWIDTH 720 0
DWIDTH 6 0
BBX 5 5 0 0
BITMAP
88
90
E0
90
88
ENDCHAR
STARTCHAR 03BB
ENCODING 955
SWIDTH 720 0
DWIDTH 6 0
BBX 4 7 1 0
BITMAP
40
40
20
60
50
90
90
ENDCHAR
STARTCHAR 03BC
ENCODING 956
SWIDTH 720 0
DWIDTH 6 0
BBX 5 6 0 -1
BITMAP
88
88
88
88
F0
80
ENDCHAR
STARTCHAR 03BD
ENCODING 957
SWIDTH 720 0
DWIDTH 6 0
BBX 5 5 0 0
BITMAP
88
88
88
50
20
ENDCHAR
STARTCHAR 03BE
ENCODING 958
SWIDTH 720 0
DWIDTH 6 0
BBX 5 8 0 -1
BITMAP
70
80
60
80
80
80
70
08
ENDCHAR
STARTCHAR 03BF
ENCODING 959
SWIDTH 720 0
DWIDTH 6 0
BBX 5 5 0 0
BITMAP
70
88
88
88
70
ENDCHAR
STARTCHAR 03C0
ENCODING 960
SWIDTH 720 0
DWIDTH 6 0
BBX 5 5 0 0
BITMAP
F8
50
50
50
50
ENDCHAR
STARTCHAR 03C1
ENCODING 961
SWIDTH 720 0
DWIDTH 6 0
BBX 5 7 0 -2
BITMAP
70
88
88
88
F0
80
80
ENDCHAR
STARTCHAR 03C2
ENCODING 962
SWIDTH 720 0
DWIDTH 6 0
BBX 5 7 0 -2
BITMAP
70
88
80
80
60
10
20
ENDCHAR
STARTCHAR 03C3
ENCODING 963
SWIDTH 720 0
DWIDTH 6 0
BBX 5 5 0 0
BITMAP
78
90
90
90
60
ENDCHAR
STARTCHAR 03C4
ENCODING 964
SWIDTH 720 0
DWIDTH 6 0
BBX 5 5 0 0
BITMAP
F8
20
20
20
20
ENDCHAR
STARTCHAR 03C5
ENCODING 965
SWIDTH 720 0
DWIDTH 6 0
BBX 5 5 0 0
BITMAP
88
88
88
88
70
ENDCHAR
STARTCHAR 03C6
ENCODING 966
SWIDTH 720 0
DWIDTH 6 0
BBX 5 6 0 -1
BITMAP
30
A8
A8
70
20
20
ENDCHAR
STARTCHAR 03C7
ENCODING 967
SWIDTH 720 0
DWIDTH 6 0
BBX 5 6 0 -1
BITMAP
88
50
20
20
50
88
ENDCHAR
STARTCHAR 03C8
ENCODING 968
SWIDTH 720 0
DWIDTH 6 0
BBX 5 6 0 -1
BITMAP
A8
A8
A8
70
20
20
ENDCHAR
STARTCHAR 03C9
ENCODING 969
SWIDTH 720 0
DWIDTH 6 0
BBX 5 5 0 0
BITMAP
50
88
A8
A8
50
ENDCHAR
STARTCHAR 03CA
ENCODING 970
SWIDTH 720 0
DWIDTH 6 0
BBX 5 7 0 0
BITMAP
50
00
F8
20
20
20
F8
ENDCHAR
STARTCHAR 03CB
ENCODING 971
SWIDTH 720 0
DWIDTH 6 0
BBX 5 7 0 0
BITMAP
50
00
88
88
88
88
70
ENDCHAR
STARTCHAR 03CC
ENCODING 972
SWIDTH 720 0
DWIDTH 6 0
BBX 5 8 0 0
BITMAP
20
20
00
70
88
88
88
70
ENDCHAR
STARTCHAR 03CD
ENCODING 973
SWIDTH 720 0
DWIDTH 6 0
BBX 5 8 0 0
BITMAP
20
20
00
88
88
88
88
70
ENDCHAR
STARTCHAR 03CE
ENCODING 974
SWIDTH 720 0
DWIDTH 6 0
BBX 5 8 0 0
BITMAP
20
20
00
50
88
A8
A8
50
ENDCHAR
STARTCHAR 03D8
ENCODING 984
SWIDTH 720 0
DWIDTH 6 0
BBX 5 9 0 -2
BITMAP
70
88
88
88
88
88
70
20
20
ENDCHAR
STARTCHAR 03D9
ENCODING 985
SWIDTH 720 0
DWIDTH 6 0
BBX 5 7 0 -2
BITMAP
70
88
88
88
70
20
20
ENDCHAR
STARTCHAR 0400
ENCODING 1024
SWIDTH 720 0
DWIDTH 6 0
BBX 5 9 0 0
BITMAP
40
20
F8
80
80
F8
80
80
F8
ENDCHAR
STARTCHAR 0401
ENCODING 1025
SWIDTH 720 0
DWIDTH 6 0
BBX 5 9 0 0
BITMAP
50
00
F8
80
80
F8
80
80
F8
ENDCHAR
STARTCHAR 0402
ENCODING 1026
SWIDTH 720 0
DWIDTH 6 0
BBX 5 7 0 0
BITMAP
F0
40
40
70
48
48
50
ENDCHAR
STARTCHAR 0403
ENCODING 1027
SWIDTH 720 0
DWIDTH 6 0
BBX 5 9 0 0
BITMAP
10
20
F8
80
80
80
80
80
80
ENDCHAR
STARTCHAR 0404
ENCODING 1028
SWIDTH 720 0
DWIDTH 6 0
BBX 5 7 0 0
BITMAP
30
48
80
E0
80
48
30
ENDCHAR
STARTCHAR 0405
ENCODING 1029
SWIDTH 720 0
DWIDTH 6 0
BBX 5 7 0 0
BITMAP
70
88
80
70
08
88
70
ENDCHAR
STARTCHAR 0406
ENCODING 1030
SWIDTH 720 0
DWIDTH 6 0
BBX 5 7 0 0
BITMAP
F8
20
20
20
20
20
F8
ENDCHAR
STARTCHAR 0407
ENCODING 1031
SWIDTH 720 0
DWIDTH 6 0
BBX 5 9 0 0
BITMAP
50
00
F8
20
20
20
20
20
F8
ENDCHAR
STARTCHAR 0408
ENCODING 1032
SWIDTH 720 0
DWIDTH 6 0
BBX 5 7 0 0
BITMAP
18
08
08
08
88
88
70
ENDCHAR
STARTCHAR 0409
ENCODING 1033
SWIDTH 720 0
DWIDTH 6 0
BBX 5 7 0 0
BITMAP
E0
A0
A0
B0
A8
A8
B0
ENDCHAR
STARTCHAR 040A
ENCODING 1034
SWIDTH 720 0
DWIDTH 6 0
BBX 5 7 0 0
BITMAP
A0
A0
A0
F0
A8
A8
B0
ENDCHAR
STARTCHAR 040B
ENCODING 1035
SWIDTH 720 0
DWIDTH 6 0
BBX 5 7 0 0
BITMAP
F0
40
40
70
48
48
48
ENDCHAR
STARTCHAR 040C
ENCODING 1036
SWIDTH 720 0
DWIDTH 6 0
BBX 5 9 0 0
BITMAP
10
20
88
90
A0
C0
A0
90
88
ENDCHAR
STARTCHAR 040D
ENCODING 1037
SWIDTH 720 0
DWIDTH 6 0
BBX 5 8 0 0
BITMAP
40
20
00
88
98
A8
C8
88
ENDCHAR
STARTCHAR 040E
ENCODING 1038
SWIDTH 720 0
DWIDTH 6 0
BBX 5 9 0 0
BITMAP
50
20
88
88
88
50
30
10
E0
ENDCHAR
STARTCHAR 040F
ENCODING 1039
SWIDTH 720 0
DWIDTH 6 0
BBX 5 8 0 -1
BITMAP
88
88
88
88
88
88
F8
20
ENDCHAR
STARTCHAR 0410
ENCODING 1040
SWIDTH 720 0
DWIDTH 6 0
BBX 5 7 0 0
BITMAP
70
88
88
F8
88
88
88
ENDCHAR
STARTCHAR 0411
ENCODING 1041
SWIDTH 720 0
DWIDTH 6 0
BBX 5 7 0 0
BITMAP
F0
80
80
F0
88
88
F0
ENDCHAR
STARTCHAR 0412
ENCODING 1042
SWIDTH 720 0
DWIDTH 6 0
BBX 5 7 0 0
BITMAP
F0
88
88
F0
88
88
F0
ENDCHAR
STARTCHAR 0413
ENCODING 1043
SWIDTH 720 0
DWIDTH 6 0
BBX 5 7 0 0
BITMAP
F8
80
80
80
80
80
80
ENDCHAR
STARTCHAR 0414
ENCODING 1044
SWIDTH 720 0
DWIDTH 6 0
BBX 5 8 0 -1
BITMAP
70
50
50
50
50
50
F8
88
ENDCHAR
STARTCHAR 0415
ENCODING 1045
SWIDTH 720 0
DWIDTH 6 0
BBX 5 7 0 0
BITMAP
F8
80
80
F8
80
80
F8
ENDCHAR
STARTCHAR 0416
ENCODING 1046
SWIDTH 720 0
DWIDTH 6 0
BBX 5 7 0 0
BITMAP
A8
A8
A8
70
A8
A8
A8
ENDCHAR
STARTCHAR 0417
ENCODING 1047
SWIDTH 720 0
DWIDTH 6 0
BBX 5 7 0 0
BITMAP
70
88
10
20
10
88
70
ENDCHAR
STARTCHAR 0418
ENCODING 1048
SWIDTH 720 0
DWIDTH 6 0
BBX 5 7 0 0
BITMAP
98
98
A8
A8
A8
C8
C8
ENDCHAR
STARTCHAR 0419
ENCODING 1049
SWIDTH 720 0
DWIDTH 6 0
BBX 5 9 0 0
BITMAP
50
20
98
98
A8
A8
A8
C8
C8
ENDCHAR
STARTCHAR 041A
ENCODING 1050
SWIDTH 720 0
DWIDTH 6 0
BBX 5 7 0 0
BITMAP
88
90
A0
C0
A0
90
88
ENDCHAR
STARTCHAR 041B
ENCODING 1051
SWIDTH 720 0
DWIDTH 6 0
BBX 5 7 0 0
BITMAP
78
48
48
48
48
48
88
ENDCHAR
STARTCHAR 041C
ENCODING 1052
SWIDTH 720 0
DWIDTH 6 0
BBX 5 7 0 0
BITMAP
88
D8
D8
A8
A8
88
88
ENDCHAR
STARTCHAR 041D
ENCODING 1053
SWIDTH 720 0
DWIDTH 6 0
BBX 5 7 0 0
BITMAP
88
88
88
F8
88
88
88
ENDCHAR
STARTCHAR 041E
ENCODING 1054
SWIDTH 720 0
DWIDTH 6 0
BBX 5 7 0 0
BITMAP
70
88
88
88
88
88
70
ENDCHAR
STARTCHAR 041F
ENCODING 1055
SWIDTH 720 0
DWIDTH 6 0
BBX 5 7 0 0
BITMAP
F8
88
88
88
88
88
88
ENDCHAR
STARTCHAR 0420
ENCODING 1056
SWIDTH 720 0
DWIDTH 6 0
BBX 5 7 0 0
BITMAP
F0
88
88
F0
80
80
80
ENDCHAR
STARTCHAR 0421
ENCODING 1057
SWIDTH 720 0
DWIDTH 6 0
BBX 5 7 0 0
BITMAP
70
88
80
80
80
88
70
ENDCHAR
STARTCHAR 0422
ENCODING 1058
SWIDTH 720 0
DWIDTH 6 0
BBX 5 7 0 0
BITMAP
F8
20
20
20
20
20
20
ENDCHAR
STARTCHAR 0423
ENCODING 1059
SWIDTH 720 0
DWIDTH 6 0
BBX 5 7 0 0
BITMAP
88
88
88
50
30
10
E0
ENDCHAR
STARTCHAR 0424
ENCODING 1060
SWIDTH 720 0
DWIDTH 6 0
BBX 5 7 0 0
BITMAP
20
70
A8
A8
A8
70
20
ENDCHAR
STARTCHAR 0425
ENCODING 1061
SWIDTH 720 0
DWIDTH 6 0
BBX 5 7 0 0
BITMAP
88
88
50
20
50
88
88
ENDCHAR
STARTCHAR 0426
ENCODING 1062
SWIDTH 720 0
DWIDTH 6 0
BBX 5 8 0 -1
BITMAP
88
88
88
88
88
88
F8
08
ENDCHAR
STARTCHAR 0427
ENCODING 1063
SWIDTH 720 0
DWIDTH 6 0
BBX 5 7 0 0
BITMAP
88
88
88
78
08
08
08
ENDCHAR
STARTCHAR 0428
ENCODING 1064
SWIDTH 720 0
DWIDTH 6 0
BBX 5 7 0 0
BITMAP
A8
A8
A8
A8
A8
A8
F8
ENDCHAR
STARTCHAR 0429
ENCODING 1065
SWIDTH 720 0
DWIDTH 6 0
BBX 5 8 0 -1
BITMAP
A8
A8
A8
A8
A8
A8
F8
08
ENDCHAR
STARTCHAR 042A
ENCODING 1066
SWIDTH 720 0
DWIDTH 6 0
BBX 5 7 0 0
BITMAP
C0
40
40
70
48
48
70
ENDCHAR
STARTCHAR 042B
ENCODING 1067
SWIDTH 720 0
DWIDTH 6 0
BBX 5 7 0 0
BITMAP
88
88
88
C8
A8
A8
C8
ENDCHAR
STARTCHAR 042C
ENCODING 1068
SWIDTH 720 0
DWIDTH 6 0
BBX 5 7 0 0
BITMAP
80
80
80
F0
88
88
F0
ENDCHAR
STARTCHAR 042D
ENCODING 1069
SWIDTH 720 0
DWIDTH 6 0
BBX 5 7 0 0
BITMAP
60
90
08
38
08
90
60
ENDCHAR
STARTCHAR 042E
ENCODING 1070
SWIDTH 720 0
DWIDTH 6 0
BBX 5 7 0 0
BITMAP
90
A8
A8
E8
A8
A8
90
ENDCHAR
STARTCHAR 042F
ENCODING 1071
SWIDTH 720 0
DWIDTH 6 0
BBX 5 7 0 0
BITMAP
78
88
88
78
48
88
88
ENDCHAR
STARTCHAR 0430
ENCODING 1072
SWIDTH 720 0
DWIDTH 6 0
BBX 5 5 0 0
BITMAP
68
98
88
98
68
ENDCHAR
STARTCHAR 0431
ENCODING 1073
SWIDTH 720 0
DWIDTH 6 0
BBX 5 7 0 0
BITMAP
70
80
80
B0
C8
88
70
ENDCHAR
STARTCHAR 0432
ENCODING 1074
SWIDTH 720 0
DWIDTH 6 0
BBX 5 5 0 0
BITMAP
F0
88
F0
88
F0
ENDCHAR
STARTCHAR 0433
ENCODING 1075
SWIDTH 720 0
DWIDTH 6 0
BBX 5 5 0 0
BITMAP
F8
80
80
80
80
ENDCHAR
STARTCHAR 0434
ENCODING 1076
SWIDTH 720 0
DWIDTH 6 0
BBX 5 6 0 -1
BITMAP
70
50
50
50
F8
88
ENDCHAR
STARTCHAR 0435
ENCODING 1077
SWIDTH 720 0
DWIDTH 6 0
BBX 5 5 0 0
BITMAP
70
88
F8
80
78
ENDCHAR
STARTCHAR 0436
ENCODING 1078
SWIDTH 720 0
DWIDTH 6 0
BBX 5 5 0 0
BITMAP
A8
A8
70
A8
A8
ENDCHAR
STARTCHAR 0437
ENCODING 1079
SWIDTH 720 0
DWIDTH 6 0
BBX 5 5 0 0
BITMAP
70
88
10
88
70
ENDCHAR
STARTCHAR 0438
ENCODING 1080
SWIDTH 720 0
DWIDTH 6 0
BBX 5 5 0 0
BITMAP
88
98
A8
C8
88
ENDCHAR
STARTCHAR 0439
ENCODING 1081
SWIDTH 720 0
DWIDTH 6 0
BBX 5 8 0 0
BITMAP
50
20
00
88
98
A8
C8
88
ENDCHAR
STARTCHAR 043A
ENCODING 1082
SWIDTH 720 0
DWIDTH 6 0
BBX 5 5 0 0
BITMAP
88
90
E0
90
88
ENDCHAR
STARTCHAR 043B
ENCODING 1083
SWIDTH 720 0
DWIDTH 6 0
BBX 5 5 0 0
BITMAP
78
48
48
48
88
ENDCHAR
STARTCHAR 043C
ENCODING 1084
SWIDTH 720 0
DWIDTH 6 0
BBX 5 5 0 0
BITMAP
88
D8
A8
A8
88
ENDCHAR
STARTCHAR 043D
ENCODING 1085
SWIDTH 720 0
DWIDTH 6 0
BBX 5 5 0 0
BITMAP
88
88
F8
88
88
ENDCHAR
STARTCHAR 043E
ENCODING 1086
SWIDTH 720 0
DWIDTH 6 0
BBX 5 5 0 0
BITMAP
70
88
88
88
70
ENDCHAR
STARTCHAR 043F
ENCODING 1087
SWIDTH 720 0
DWIDTH 6 0
BBX 5 5 0 0
BITMAP
F8
88
88
88
88
ENDCHAR
STARTCHAR 0440
ENCODING 1088
SWIDTH 720 0
DWIDTH 6 0
BBX 5 7 0 -2
BITMAP
70
88
88
88
F0
80
80
ENDCHAR
STARTCHAR 0441
ENCODING 1089
SWIDTH 720 0
DWIDTH 6 0
BBX 5 5 0 0
BITMAP
78
80
80
80
78
ENDCHAR
STARTCHAR 0442
ENCODING 1090
SWIDTH 720 0
DWIDTH 6 0
BBX 5 5 0 0
BITMAP
F8
20
20
20
20
ENDCHAR
STARTCHAR 0443
ENCODING 1091
SWIDTH 720 0
DWIDTH 6 0
BBX 5 6 0 -1
BITMAP
88
88
88
70
10
E0
ENDCHAR
STARTCHAR 0444
ENCODING 1092
SWIDTH 720 0
DWIDTH 6 0
BBX 5 7 0 -1
BITMAP
20
F8
A8
A8
A8
F8
20
ENDCHAR
STARTCHAR 0445
ENCODING 1093
SWIDTH 720 0
DWIDTH 6 0
BBX 5 5 0 0
BITMAP
88
50
20
50
88
ENDCHAR
STARTCHAR 0446
ENCODING 1094
SWIDTH 720 0
DWIDTH 6 0
BBX 5 6 0 -1
BITMAP
88
88
88
88
F8
08
ENDCHAR
STARTCHAR 0447
ENCODING 1095
SWIDTH 720 0
DWIDTH 6 0
BBX 5 5 0 0
BITMAP
88
88
78
08
08
ENDCHAR
STARTCHAR 0448
ENCODING 1096
SWIDTH 720 0
DWIDTH 6 0
BBX 5 5 0 0
BITMAP
A8
A8
A8
A8
F8
ENDCHAR
STARTCHAR 0449
ENCODING 1097
SWIDTH 720 0
DWIDTH 6 0
BBX 5 6 0 -1
BITMAP
A8
A8
A8
A8
F8
08
ENDCHAR
STARTCHAR 044A
ENCODING 1098
SWIDTH 720 0
DWIDTH 6 0
BBX 5 5 0 0
BITMAP
C0
40
70
48
70
ENDCHAR
STARTCHAR 044B
ENCODING 1099
SWIDTH 720 0
DWIDTH 6 0
BBX 5 5 0 0
BITMAP
88
88
C8
A8
C8
ENDCHAR
STARTCHAR 044C
ENCODING 1100
SWIDTH 720 0
DWIDTH 6 0
BBX 5 5 0 0
BITMAP
80
80
F0
88
F0
ENDCHAR
STARTCHAR 044D
ENCODING 1101
SWIDTH 720 0
DWIDTH 6 0
BBX 5 5 0 0
BITMAP
70
88
38
88
70
ENDCHAR
STARTCHAR 044E
ENCODING 1102
SWIDTH 720 0
DWIDTH 6 0
BBX 5 5 0 0
BITMAP
90
A8
E8
A8
90
ENDCHAR
STARTCHAR 044F
ENCODING 1103
SWIDTH 720 0
DWIDTH 6 0
BBX 5 5 0 0
BITMAP
78
88
78
88
88
ENDCHAR
STARTCHAR 0450
ENCODING 1104
SWIDTH 720 0
DWIDTH 6 0
BBX 5 8 0 0
BITMAP
40
20
00
70
88
F8
80
78
ENDCHAR
STARTCHAR 0451
ENCODING 1105
SWIDTH 720 0
DWIDTH 6 0
BBX 5 7 0 0
BITMAP
50
00
70
88
F8
80
78
ENDCHAR
STARTCHAR 0452
ENCODING 1106
SWIDTH 720 0
DWIDTH 6 0
BBX 5 9 0 -2
BITMAP
40
E0
40
70
48
48
48
08
10
ENDCHAR
STARTCHAR 0453
ENCODING 1107
SWIDTH 720 0
DWIDTH 6 0
BBX 5 8 0 0
BITMAP
10
20
00
F8
80
80
80
80
ENDCHAR
STARTCHAR 0454
ENCODING 1108
SWIDTH 720 0
DWIDTH 6 0
BBX 5 5 0 0
BITMAP
70
88
E0
88
70
ENDCHAR
STARTCHAR 0455
ENCODING 1109
SWIDTH 720 0
DWIDTH 6 0
BBX 5 5 0 0
BITMAP
78
80
70
08
F0
ENDCHAR
STARTCHAR 0456
ENCODING 1110
SWIDTH 720 0
DWIDTH 6 0
BBX 5 5 0 0
BITMAP
F8
20
20
20
F8
ENDCHAR
STARTCHAR 0457
ENCODING 1111
SWIDTH 720 0
DWIDTH 6 0
BBX 5 7 0 0
BITMAP
50
00
F8
20
20
20
F8
ENDCHAR
STARTCHAR 0458
ENCODING 1112
SWIDTH 720 0
DWIDTH 6 0
BBX 5 5 0 0
BITMAP
08
08
88
88
70
ENDCHAR
STARTCHAR 0459
ENCODING 1113
SWIDTH 720 0
DWIDTH 6 0
BBX 5 5 0 0
BITMAP
E0
A0
B0
A8
B0
ENDCHAR
STARTCHAR 045A
ENCODING 1114
SWIDTH 720 0
DWIDTH 6 0
BBX 5 5 0 0
BITMAP
A0
A0
F0
A8
B0
ENDCHAR
STARTCHAR 045B
ENCODING 1115
SWIDTH 720 0
DWIDTH 6 0
BBX 5 7 0 0
BITMAP
40
E0
40
70
48
48
48
ENDCHAR
STARTCHAR 045C
ENCODING 1116
SWIDTH 720 0
DWIDTH 6 0
BBX 5 8 0 0
BITMAP
10
20
00
88
90
E0
90
88
ENDCHAR
STARTCHAR 045D
ENCODING 1117
SWIDTH 720 0
DWIDTH 6 0
BBX 5 9 0 0
BITMAP
40
20
98
98
A8
A8
A8
C8
C8
ENDCHAR
STARTCHAR 045E
ENCODING 1118
SWIDTH 720 0
DWIDTH 6 0
BBX 5 9 0 -1
BITMAP
50
20
00
88
88
88
70
10
E0
ENDCHAR
STARTCHAR 045F
ENCODING 1119
SWIDTH 720 0
DWIDTH 6 0
BBX 5 6 0 -1
BITMAP
88
88
88
88
F8
20
ENDCHAR
STARTCHAR 048A
ENCODING 1162
SWIDTH 720 0
DWIDTH 6 0
BBX 5 10 0 -1
BITMAP
50
20
98
98
A8
A8
A8
C8
C8
08
ENDCHAR
STARTCHAR 048B
ENCODING 1163
SWIDTH 720 0
DWIDTH 6 0
BBX 5 9 0 -1
BITMAP
50
20
00
88
98
A8
C8
88
08
ENDCHAR
STARTCHAR 048C
ENCODING 1164
SWIDTH 720 0
DWIDTH 6 0
BBX 5 7 0 0
BITMAP
40
E0
40
70
48
48
70
ENDCHAR
STARTCHAR 048D
ENCODING 1165
SWIDTH 720 0
DWIDTH 6 0
BBX 5 7 0 0
BITMAP
40
E0
40
40
70
48
70
ENDCHAR
STARTCHAR 0490
ENCODING 1168
SWIDTH 720 0
DWIDTH 6 0
BBX 5 8 0 0
BITMAP
08
F8
80
80
80
80
80
80
ENDCHAR
STARTCHAR 0491
ENCODING 1169
SWIDTH 720 0
DWIDTH 6 0
BBX 5 6 0 0
BITMAP
08
F8
80
80
80
80
ENDCHAR
STARTCHAR 0492
ENCODING 1170
SWIDTH 720 0
DWIDTH 6 0
BBX 5 7 0 0
BITMAP
78
40
40
F0
40
40
40
ENDCHAR
STARTCHAR 0493
ENCODING 1171
SWIDTH 720 0
DWIDTH 6 0
BBX 5 5 0 0
BITMAP
78
40
E0
40
40
ENDCHAR
STARTCHAR 0496
ENCODING 1174
SWIDTH 720 0
DWIDTH 6 0
BBX 5 8 0 -1
BITMAP
A8
A8
A8
70
A8
A8
A8
08
ENDCHAR
STARTCHAR 0497
ENCODING 1175
SWIDTH 720 0
DWIDTH 6 0
BBX 5 6 0 -1
BITMAP
A8
A8
70
A8
A8
08
ENDCHAR
STARTCHAR 0498
ENCODING 1176
SWIDTH 720 0
DWIDTH 6 0
BBX 5 9 0 -2
BITMAP
70
88
10
20
10
88
70
20
60
ENDCHAR
STARTCHAR 0499
ENCODING 1177
SWIDTH 720 0
DWIDTH 6 0
BBX 5 7 0 -2
BITMAP
70
88
10
88
70
20
60
ENDCHAR
STARTCHAR 049A
ENCODING 1178
SWIDTH 720 0
DWIDTH 6 0
BBX 5 8 0 -1
BITMAP
88
90
A0
C0
A0
90
88
08
ENDCHAR
STARTCHAR 049B
ENCODING 1179
SWIDTH 720 0
DWIDTH 6 0
BBX 5 6 0 -1
BITMAP
88
90
E0
90
88
08
ENDCHAR
STARTCHAR 049E
ENCODING 1182
SWIDTH 720 0
DWIDTH 6 0
BBX 5 7 0 0
BITMAP
48
D0
60
40
60
50
48
ENDCHAR
STARTCHAR 049F
ENCODING 1183
SWIDTH 720 0
DWIDTH 6 0
BBX 5 7 0 0
BITMAP
40
E0
48
50
60
50
48
ENDCHAR
STARTCHAR 04A0
ENCODING 1184
SWIDTH 720 0
DWIDTH 6 0
BBX 5 7 0 0
BITMAP
C8
50
60
40
60
50
48
ENDCHAR
STARTCHAR 04A1
ENCODING 1185
SWIDTH 720 0
DWIDTH 6 0
BBX 5 5 0 0
BITMAP
C8
50
60
50
48
ENDCHAR
STARTCHAR 04A2
ENCODING 1186
SWIDTH 720 0
DWIDTH 6 0
BBX 5 8 0 -1
BITMAP
88
88
88
F8
88
88
88
08
ENDCHAR
STARTCHAR 04A3
ENCODING 1187
SWIDTH 720 0
DWIDTH 6 0
BBX 5 6 0 -1
BITMAP
88
88
F8
88
88
08
ENDCHAR
STARTCHAR 04A4
ENCODING 1188
SWIDTH 720 0
DWIDTH 6 0
BBX 5 7 0 0
BITMAP
98
90
90
F0
90
90
90
ENDCHAR
STARTCHAR 04A5
ENCODING 1189
SWIDTH 720 0
DWIDTH 6 0
BBX 5 5 0 0
BITMAP
98
90
F0
90
90
ENDCHAR
STARTCHAR 04AA
ENCODING 1194
SWIDTH 720 0
DWIDTH 6 0
BBX 5 9 0 -2
BITMAP
70
88
80
80
80
88
70
20
60
ENDCHAR
STARTCHAR 04AB
ENCODING 1195
SWIDTH 720 0
DWIDTH 6 0
BBX 5 7 0 -2
BITMAP
78
80
80
80
78
20
60
ENDCHAR
STARTCHAR 04AC
ENCODING 1196
SWIDTH 720 0
DWIDTH 6 0
BBX 5 8 0 -1
BITMAP
F8
20
20
20
20
20
30
10
ENDCHAR
STARTCHAR 04AD
ENCODING 1197
SWIDTH 720 0
DWIDTH 6 0
BBX 5 6 0 -1
BITMAP
F8
20
20
20
30
10
ENDCHAR
STARTCHAR 04AE
ENCODING 1198
SWIDTH 720 0
DWIDTH 6 0
BBX 5 7 0 0
BITMAP
88
88
88
70
20
20
20
ENDCHAR
STARTCHAR 04AF
ENCODING 1199
SWIDTH 720 0
DWIDTH 6 0
BBX 5 6 0 -1
BITMAP
88
88
88
70
20
20
ENDCHAR
STARTCHAR 04B0
ENCODING 1200
SWIDTH 720 0
DWIDTH 6 0
BBX 5 7 0 0
BITMAP
88
88
88
70
20
70
20
ENDCHAR
STARTCHAR 04B1
ENCODING 1201
SWIDTH 720 0
DWIDTH 6 0
BBX 5 6 0 -1
BITMAP
88
88
70
20
70
20
ENDCHAR
STARTCHAR 04B2
ENCODING 1202
SWIDTH 720 0
DWIDTH 6 0
BBX 5 8 0 -1
BITMAP
88
88
50
20
50
88
88
08
ENDCHAR
STARTCHAR 04B3
ENCODING 1203
SWIDTH 720 0
DWIDTH 6 0
BBX 5 6 0 -1
BITMAP
88
50
20
50
88
08
ENDCHAR
STARTCHAR 04B4
ENCODING 1204
SWIDTH 720 0
DWIDTH 6 0
BBX 5 8 0 -1
BITMAP
E8
48
48
48
48
48
78
08
ENDCHAR
STARTCHAR 04B5
ENCODING 1205
SWIDTH 720 0
DWIDTH 6 0
BBX 5 6 0 -1
BITMAP
E8
48
48
48
78
08
ENDCHAR
STARTCHAR 04B6
ENCODING 1206
SWIDTH 720 0
DWIDTH 6 0
BBX 5 8 0 -1
BITMAP
90
90
90
70
10
10
18
08
ENDCHAR
STARTCHAR 04B7
ENCODING 1207
SWIDTH 720 0
DWIDTH 6 0
BBX 5 6 0 -1
BITMAP
90
90
70
10
18
08
ENDCHAR
STARTCHAR 04BA
ENCODING 1210
SWIDTH 720 0
DWIDTH 6 0
BBX 5 7 0 0
BITMAP
80
80
F0
88
88
88
88
ENDCHAR
STARTCHAR 04BB
ENCODING 1211
SWIDTH 720 0
DWIDTH 6 0
BBX 5 7 0 0
BITMAP
80
80
B0
C8
88
88
88
ENDCHAR
STARTCHAR 04C1
ENCODING 1217
SWIDTH 720 0
DWIDTH 6 0
BBX 5 9 0 0
BITMAP
50
70
A8
A8
A8
70
A8
A8
A8
ENDCHAR
STARTCHAR 04C2
ENCODING 1218
SWIDTH 720 0
DWIDTH 6 0
BBX 5 8 0 0
BITMAP
50
70
00
A8
A8
70
A8
A8
ENDCHAR
STARTCHAR 04D0
ENCODING 1232
SWIDTH 720 0
DWIDTH 6 0
BBX 5 9 0 0
BITMAP
50
70
70
88
88
F8
88
88
88
ENDCHAR
STARTCHAR 04D1
ENCODING 1233
SWIDTH 720 0
DWIDTH 6 0
BBX 5 8 0 0
BITMAP
50
70
00
68
98
88
98
68
ENDCHAR
STARTCHAR 04D4
ENCODING 1236
SWIDTH 720 0
DWIDTH 6 0
BBX 5 7 0 0
BITMAP
58
A0
A0
F8
A0
A0
B8
ENDCHAR
STARTCHAR 04D5
ENCODING 1237
SWIDTH 720 0
DWIDTH 6 0
BBX 5 5 0 0
BITMAP
70
A8
B0
A0
78
ENDCHAR
STARTCHAR 04D6
ENCODING 1238
SWIDTH 720 0
DWIDTH 6 0
BBX 5 9 0 0
BITMAP
50
70
F8
80
80
F0
80
80
F8
ENDCHAR
STARTCHAR 04D7
ENCODING 1239
SWIDTH 720 0
DWIDTH 6 0
BBX 5 8 0 0
BITMAP
50
70
00
70
88
F8
80
78
ENDCHAR
STARTCHAR 04D8
ENCODING 1240
SWIDTH 720 0
DWIDTH 6 0
BBX 5 7 0 0
BITMAP
70
88
08
F8
88
88
70
ENDCHAR
STARTCHAR 04D9
ENCODING 1241
SWIDTH 720 0
DWIDTH 6 0
BBX 5 5 0 0
BITMAP
F0
08
F8
88
70
ENDCHAR
STARTCHAR 04DC
ENCODING 1244
SWIDTH 720 0
DWIDTH 6 0
BBX 5 9 0 0
BITMAP
50
00
A8
A8
A8
70
A8
A8
A8
ENDCHAR
STARTCHAR 04DD
ENCODING 1245
SWIDTH 720 0
DWIDTH 6 0
BBX 5 7 0 0
BITMAP
50
00
A8
A8
70
A8
A8
ENDCHAR
STARTCHAR 04DE
ENCODING 1246
SWIDTH 720 0
DWIDTH 6 0
BBX 5 9 0 0
BITMAP
50
00
70
88
10
20
10
88
70
ENDCHAR
STARTCHAR 04DF
ENCODING 1247
SWIDTH 720 0
DWIDTH 6 0
BBX 5 7 0 0
BITMAP
50
00
70
88
10
88
70
ENDCHAR
STARTCHAR 04E4
ENCODING 1252
SWIDTH 720 0
DWIDTH 6 0
BBX 5 9 0 0
BITMAP
50
00
98
98
A8
A8
A8
C8
C8
ENDCHAR
STARTCHAR 04E5
ENCODING 1253
SWIDTH 720 0
DWIDTH 6 0
BBX 5 7 0 0
BITMAP
50
00
88
98
A8
C8
88
ENDCHAR
STARTCHAR 04E8
ENCODING 1256
SWIDTH 720 0
DWIDTH 6 0
BBX 5 7 0 0
BITMAP
70
88
88
F8
88
88
70
ENDCHAR
STARTCHAR 04E9
ENCODING 1257
SWIDTH 720 0
DWIDTH 6 0
BBX 5 5 0 0
BITMAP
70
88
F8
88
70
ENDCHAR
STARTCHAR 04EC
ENCODING 1260
SWIDTH 720 0
DWIDTH 6 0
BBX 5 9 0 0
BITMAP
50
00
60
90
08
38
08
90
60
ENDCHAR
STARTCHAR 04ED
ENCODING 1261
SWIDTH 720 0
DWIDTH 6 0
BBX 5 7 0 0
BITMAP
50
00
70
88
38
88
70
ENDCHAR
STARTCHAR 04F0
ENCODING 1264
SWIDTH 720 0
DWIDTH 6 0
BBX 5 9 0 0
BITMAP
50
00
88
88
88
50
30
10
E0
ENDCHAR
STARTCHAR 04F1
ENCODING 1265
SWIDTH 720 0
DWIDTH 6 0
BBX 5 8 0 -1
BITMAP
50
00
88
88
88
70
10
E0
ENDCHAR
STARTCHAR 04F2
ENCODING 1266
SWIDTH 720 0
DWIDTH 6 0
BBX 5 9 0 0
BITMAP
50
50
88
88
88
50
30
10
E0
ENDCHAR
STARTCHAR 04F3
ENCODING 1267
SWIDTH 720 0
DWIDTH 6 0
BBX 5 9 0 -1
BITMAP
50
50
00
88
88
88
70
10
E0
ENDCHAR
STARTCHAR 04F4
ENCODING 1268
SWIDTH 720 0
DWIDTH 6 0
BBX 5 9 0 0
BITMAP
50
00
88
88
88
78
08
08
08
ENDCHAR
STARTCHAR 04F5
ENCODING 1269
SWIDTH 720 0
DWIDTH 6 0
BBX 5 7 0 0
BITMAP
50
00
88
88
78
08
08
ENDCHAR
STARTCHAR 04F6
ENCODING 1270
SWIDTH 720 0
DWIDTH 6 0
BBX 5 8 0 -1
BITMAP
F8
80
80
80
80
80
C0
40
ENDCHAR
STARTCHAR 04F7
ENCODING 1271
SWIDTH 720 0
DWIDTH 6 0
BBX 5 6 0 -1
BITMAP
F8
80
80
80
C0
40
ENDCHAR
STARTCHAR 04F8
ENCODING 1272
SWIDTH 720 0
DWIDTH 6 0
BBX 5 9 0 0
BITMAP
50
00
88
88
88
C8
A8
A8
C8
ENDCHAR
STARTCHAR 04F9
ENCODING 1273
SWIDTH 720 0
DWIDTH 6 0
BBX 5 7 0 0
BITMAP
50
00
88
88
C8
A8
C8
ENDCHAR
STARTCHAR 0510
ENCODING 1296
SWIDTH 720 0
DWIDTH 6 0
BBX 5 7 0 0
BITMAP
70
88
40
20
40
88
70
ENDCHAR
STARTCHAR 0511
ENCODING 1297
SWIDTH 720 0
DWIDTH 6 0
BBX 5 5 0 0
BITMAP
70
88
40
88
70
ENDCHAR
STARTCHAR 0512
ENCODING 1298
SWIDTH 720 0
DWIDTH 6 0
BBX 5 8 0 -1
BITMAP
78
48
48
48
48
48
88
10
ENDCHAR
STARTCHAR 0513
ENCODING 1299
SWIDTH 720 0
DWIDTH 6 0
BBX 5 6 0 -1
BITMAP
78
48
48
48
88
10
ENDCHAR
STARTCHAR 1E02
ENCODING 7682
SWIDTH 720 0
DWIDTH 6 0
BBX 5 9 0 0
BITMAP
20
00
F0
88
88
F0
88
88
F0
ENDCHAR
STARTCHAR 1E03
ENCODING 7683
SWIDTH 720 0
DWIDTH 6 0
BBX 5 7 0 0
BITMAP
A0
80
B0
C8
88
C8
B0
ENDCHAR
STARTCHAR 1E04
ENCODING 7684
SWIDTH 720 0
DWIDTH 6 0
BBX 5 9 0 -2
BITMAP
F0
88
88
F0
88
88
F0
00
20
ENDCHAR
STARTCHAR 1E05
ENCODING 7685
SWIDTH 720 0
DWIDTH 6 0
BBX 5 9 0 -2
BITMAP
80
80
B0
C8
88
C8
B0
00
20
ENDCHAR
STARTCHAR 1E0A
ENCODING 7690
SWIDTH 720 0
DWIDTH 6 0
BBX 5 9 0 0
BITMAP
40
00
E0
90
88
88
88
90
E0
ENDCHAR
STARTCHAR 1E0B
ENCODING 7691
SWIDTH 720 0
DWIDTH 6 0
BBX 5 7 0 0
BITMAP
28
08
68
98
88
98
68
ENDCHAR
STARTCHAR 1E0C
ENCODING 7692
SWIDTH 720 0
DWIDTH 6 0
BBX 5 9 0 -2
BITMAP
E0
90
88
88
88
90
E0
00
20
ENDCHAR
STARTCHAR 1E0D
ENCODING 7693
SWIDTH 720 0
DWIDTH 6 0
BBX 5 9 0 -2
BITMAP
08
08
68
98
88
98
68
00
20
ENDCHAR
STARTCHAR 1E10
ENCODING 7696
SWIDTH 720 0
DWIDTH 6 0
BBX 5 9 0 -2
BITMAP
E0
90
88
88
88
90
E0
20
40
ENDCHAR
STARTCHAR 1E11
ENCODING 7697
SWIDTH 720 0
DWIDTH 6 0
BBX 5 9 0 -2
BITMAP
08
08
68
98
88
98
68
20
40
ENDCHAR
STARTCHAR 1E1E
ENCODING 7710
SWIDTH 720 0
DWIDTH 6 0
BBX 5 9 0 0
BITMAP
20
00
F8
80
80
F0
80
80
80
ENDCHAR
STARTCHAR 1E1F
ENCODING 7711
SWIDTH 720 0
DWIDTH 6 0
BBX 5 9 0 0
BITMAP
20
00
30
20
F8
20
20
20
20
ENDCHAR
STARTCHAR 1E22
ENCODING 7714
SWIDTH 720 0
DWIDTH 6 0
BBX 5 9 0 0
BITMAP
20
00
88
88
88
F8
88
88
88
ENDCHAR
STARTCHAR 1E23
ENCODING 7715
SWIDTH 720 0
DWIDTH 6 0
BBX 5 9 0 0
BITMAP
20
00
80
80
B0
C8
88
88
88
ENDCHAR
STARTCHAR 1E24
ENCODING 7716
SWIDTH 720 0
DWIDTH 6 0
BBX 5 9 0 -2
BITMAP
88
88
88
F8
88
88
88
00
20
ENDCHAR
STARTCHAR 1E25
ENCODING 7717
SWIDTH 720 0
DWIDTH 6 0
BBX 5 9 0 -2
BITMAP
80
80
B0
C8
88
88
88
00
20
ENDCHAR
STARTCHAR 1E36
ENCODING 7734
SWIDTH 720 0
DWIDTH 6 0
BBX 5 9 0 -2
BITMAP
80
80
80
80
80
80
F8
00
20
ENDCHAR
STARTCHAR 1E37
ENCODING 7735
SWIDTH 720 0
DWIDTH 6 0
BBX 5 7 0 -2
BITMAP
80
80
80
80
F8
00
20
ENDCHAR
STARTCHAR 1E3A
ENCODING 7738
SWIDTH 720 0
DWIDTH 6 0
BBX 5 9 0 -2
BITMAP
80
80
80
80
80
80
F8
00
70
ENDCHAR
STARTCHAR 1E3B
ENCODING 7739
SWIDTH 720 0
DWIDTH 6 0
BBX 5 7 0 -2
BITMAP
80
80
80
80
F8
00
70
ENDCHAR
STARTCHAR 1E3E
ENCODING 7742
SWIDTH 720 0
DWIDTH 6 0
BBX 5 9 0 0
BITMAP
10
20
88
D8
D8
A8
A8
88
88
ENDCHAR
STARTCHAR 1E3F
ENCODING 7743
SWIDTH 720 0
DWIDTH 6 0
BBX 5 8 0 0
BITMAP
10
20
00
88
D8
A8
A8
88
ENDCHAR
STARTCHAR 1E40
ENCODING 7744
SWIDTH 720 0
DWIDTH 6 0
BBX 5 9 0 0
BITMAP
20
00
88
D8
D8
A8
A8
88
88
ENDCHAR
STARTCHAR 1E41
ENCODING 7745
SWIDTH 720 0
DWIDTH 6 0
BBX 5 7 0 0
BITMAP
20
00
88
D8
A8
A8
88
ENDCHAR
STARTCHAR 1E44
ENCODING 7748
SWIDTH 720 0
DWIDTH 6 0
BBX 5 9 0 0
BITMAP
20
00
C8
C8
A8
A8
A8
98
98
ENDCHAR
STARTCHAR 1E45
ENCODING 7749
SWIDTH 720 0
DWIDTH 6 0
BBX 5 7 0 0
BITMAP
20
00
B0
C8
88
88
88
ENDCHAR
STARTCHAR 1E46
ENCODING 7750
SWIDTH 720 0
DWIDTH 6 0
BBX 5 9 0 -2
BITMAP
C8
C8
A8
A8
A8
98
98
00
20
ENDCHAR
STARTCHAR 1E47
ENCODING 7751
SWIDTH 720 0
DWIDTH 6 0
BBX 5 7 0 -2
BITMAP
B0
C8
88
88
88
00
20
ENDCHAR
STARTCHAR 1E48
ENCODING 7752
SWIDTH 720 0
DWIDTH 6 0
BBX 5 9 0 -2
BITMAP
C8
C8
A8
A8
A8
98
98
00
70
ENDCHAR
STARTCHAR 1E49
ENCODING 7753
SWIDTH 720 0
DWIDTH 6 0
BBX 5 7 0 -2
BITMAP
B0
C8
88
88
88
00
70
ENDCHAR
STARTCHAR 1E56
ENCODING 7766
SWIDTH 720 0
DWIDTH 6 0
BBX 5 9 0 0
BITMAP
20
00
F0
88
88
F0
80
80
80
ENDCHAR
STARTCHAR 1E57
ENCODING 7767
SWIDTH 720 0
DWIDTH 6 0
BBX 5 9 0 -2
BITMAP
20
00
70
88
88
88
F0
80
80
ENDCHAR
STARTCHAR 1E5A
ENCODING 7770
SWIDTH 720 0
DWIDTH 6 0
BBX 5 9 0 -2
BITMAP
F0
88
88
F0
A0
90
88
00
20
ENDCHAR
STARTCHAR 1E5B
ENCODING 7771
SWIDTH 720 0
DWIDTH 6 0
BBX 5 7 0 -2
BITMAP
98
A0
C0
80
80
00
20
ENDCHAR
STARTCHAR 1E60
ENCODING 7776
SWIDTH 720 0
DWIDTH 6 0
BBX 5 9 0 0
BITMAP
20
00
70
88
80
70
08
88
70
ENDCHAR
STARTCHAR 1E61
ENCODING 7777
SWIDTH 720 0
DWIDTH 6 0
BBX 5 7 0 0
BITMAP
20
00
78
80
70
08
F0
ENDCHAR
STARTCHAR 1E62
ENCODING 7778
SWIDTH 720 0
DWIDTH 6 0
BBX 5 9 0 -2
BITMAP
70
88
80
70
08
88
70
00
20
ENDCHAR
STARTCHAR 1E63
ENCODING 7779
SWIDTH 720 0
DWIDTH 6 0
BBX 5 7 0 -2
BITMAP
78
80
70
08
F0
00
20
ENDCHAR
STARTCHAR 1E6A
ENCODING 7786
SWIDTH 720 0
DWIDTH 6 0
BBX 5 9 0 0
BITMAP
20
00
F8
20
20
20
20
20
20
ENDCHAR
STARTCHAR 1E6B
ENCODING 7787
SWIDTH 720 0
DWIDTH 6 0
BBX 5 9 0 0
BITMAP
20
00
20
20
F8
20
20
20
30
ENDCHAR
STARTCHAR 1E6C
ENCODING 7788
SWIDTH 720 0
DWIDTH 6 0
BBX 5 9 0 -2
BITMAP
F8
20
20
20
20
20
20
00
20
ENDCHAR
STARTCHAR 1E6D
ENCODING 7789
SWIDTH 720 0
DWIDTH 6 0
BBX 5 9 0 -2
BITMAP
20
20
F8
20
20
20
30
00
20
ENDCHAR
STARTCHAR 1E7C
ENCODING 7804
SWIDTH 720 0
DWIDTH 6 0
BBX 5 9 0 0
BITMAP
28
50
88
88
88
50
50
20
20
ENDCHAR
STARTCHAR 1E7D
ENCODING 7805
SWIDTH 720 0
DWIDTH 6 0
BBX 5 8 0 0
BITMAP
28
50
00
88
88
88
50
20
ENDCHAR
STARTCHAR 1E80
ENCODING 7808
SWIDTH 720 0
DWIDTH 6 0
BBX 5 9 0 0
BITMAP
40
20
A8
A8
A8
A8
A8
50
50
ENDCHAR
STARTCHAR 1E81
ENCODING 7809
SWIDTH 720 0
DWIDTH 6 0
BBX 5 8 0 0
BITMAP
40
20
00
88
88
A8
A8
50
ENDCHAR
STARTCHAR 1E82
ENCODING 7810
SWIDTH 720 0
DWIDTH 6 0
BBX 5 9 0 0
BITMAP
10
20
A8
A8
A8
A8
A8
50
50
ENDCHAR
STARTCHAR 1E83
ENCODING 7811
SWIDTH 720 0
DWIDTH 6 0
BBX 5 8 0 0
BITMAP
10
20
00
88
88
A8
A8
50
ENDCHAR
STARTCHAR 1E84
ENCODING 7812
SWIDTH 720 0
DWIDTH 6 0
BBX 5 9 0 0
BITMAP
50
00
A8
A8
A8
A8
A8
50
50
ENDCHAR
STARTCHAR 1E85
ENCODING 7813
SWIDTH 720 0
DWIDTH 6 0
BBX 5 7 0 0
BITMAP
50
00
88
88
A8
A8
50
ENDCHAR
STARTCHAR 1E86
ENCODING 7814
SWIDTH 720 0
DWIDTH 6 0
BBX 5 9 0 0
BITMAP
20
00
A8
A8
A8
A8
A8
50
50
ENDCHAR
STARTCHAR 1E87
ENCODING 7815
SWIDTH 720 0
DWIDTH 6 0
BBX 5 7 0 0
BITMAP
20
00
88
88
A8
A8
50
ENDCHAR
STARTCHAR 1E88
ENCODING 7816
SWIDTH 720 0
DWIDTH 6 0
BBX 5 9 0 -2
BITMAP
A8
A8
A8
A8
A8
50
50
00
20
ENDCHAR
STARTCHAR 1E89
ENCODING 7817
SWIDTH 720 0
DWIDTH 6 0
BBX 5 7 0 -2
BITMAP
88
88
A8
A8
50
00
20
ENDCHAR
STARTCHAR 1E92
ENCODING 7826
SWIDTH 720 0
DWIDTH 6 0
BBX 5 9 0 -2
BITMAP
F8
08
10
20
40
80
F8
00
20
ENDCHAR
STARTCHAR 1E93
ENCODING 7827
SWIDTH 720 0
DWIDTH 6 0
BBX 5 7 0 -2
BITMAP
F8
08
70
80
F8
00
20
ENDCHAR
STARTCHAR 1E9E
ENCODING 7838
SWIDTH 720 0
DWIDTH 6 0
BBX 5 7 0 0
BITMAP
70
88
90
A0
90
88
B0
ENDCHAR
STARTCHAR 1EA0
ENCODING 7840
SWIDTH 720 0
DWIDTH 6 0
BBX 5 9 0 -2
BITMAP
70
88
88
F8
88
88
88
00
20
ENDCHAR
STARTCHAR 1EA1
ENCODING 7841
SWIDTH 720 0
DWIDTH 6 0
BBX 5 7 0 -2
BITMAP
68
98
88
98
68
00
20
ENDCHAR
STARTCHAR 1EA2
ENCODING 7842
SWIDTH 720 0
DWIDTH 6 0
BBX 5 9 0 0
BITMAP
60
20
70
88
88
F8
88
88
88
ENDCHAR
STARTCHAR 1EA3
ENCODING 7843
SWIDTH 720 0
DWIDTH 6 0
BBX 5 8 0 0
BITMAP
60
20
00
68
98
88
98
68
ENDCHAR
STARTCHAR 1EAC
ENCODING 7852
SWIDTH 720 0
DWIDTH 6 0
BBX 5 11 0 -2
BITMAP
20
50
70
88
88
F8
88
88
88
00
20
ENDCHAR
STARTCHAR 1EAD
ENCODING 7853
SWIDTH 720 0
DWIDTH 6 0
BBX 5 10 0 -2
BITMAP
20
50
00
68
98
88
98
68
00
20
ENDCHAR
STARTCHAR 1EB6
ENCODING 7862
SWIDTH 720 0
DWIDTH 6 0
BBX 5 11 0 -2
BITMAP
50
70
70
88
88
F8
88
88
88
00
20
ENDCHAR
STARTCHAR 1EB7
ENCODING 7863
SWIDTH 720 0
DWIDTH 6 0
BBX 5 10 0 -2
BITMAP
50
70
00
68
98
88
98
68
00
20
ENDCHAR
STARTCHAR 1EB8
ENCODING 7864
SWIDTH 720 0
DWIDTH 6 0
BBX 5 9 0 -2
BITMAP
F8
80
80
F0
80
80
F8
00
20
ENDCHAR
STARTCHAR 1EB9
ENCODING 7865
SWIDTH 720 0
DWIDTH 6 0
BBX 5 7 0 -2
BITMAP
70
88
F8
80
78
00
20
ENDCHAR
STARTCHAR 1EBA
ENCODING 7866
SWIDTH 720 0
DWIDTH 6 0
BBX 5 9 0 0
BITMAP
60
20
F8
80
80
F0
80
80
F8
ENDCHAR
STARTCHAR 1EBB
ENCODING 7867
SWIDTH 720 0
DWIDTH 6 0
BBX 5 8 0 0
BITMAP
60
20
00
70
88
F8
80
78
ENDCHAR
STARTCHAR 1EBC
ENCODING 7868
SWIDTH 720 0
DWIDTH 6 0
BBX 5 9 0 0
BITMAP
28
50
F8
80
80
F0
80
80
F8
ENDCHAR
STARTCHAR 1EBD
ENCODING 7869
SWIDTH 720 0
DWIDTH 6 0
BBX 5 8 0 0
BITMAP
28
50
00
70
88
F8
80
78
ENDCHAR
STARTCHAR 1EC6
ENCODING 7878
SWIDTH 720 0
DWIDTH 6 0
BBX 5 11 0 -2
BITMAP
20
50
F8
80
80
F0
80
80
F8
00
20
ENDCHAR
STARTCHAR 1EC7
ENCODING 7879
SWIDTH 720 0
DWIDTH 6 0
BBX 5 10 0 -2
BITMAP
20
50
00
70
88
F8
80
78
00
20
ENDCHAR
STARTCHAR 1EC8
ENCODING 7880
SWIDTH 720 0
DWIDTH 6 0
BBX 5 9 0 0
BITMAP
60
20
F8
20
20
20
20
20
F8
ENDCHAR
STARTCHAR 1EC9
ENCODING 7881
SWIDTH 720 0
DWIDTH 6 0
BBX 5 8 0 0
BITMAP
60
20
00
F8
20
20
20
F8
ENDCHAR
STARTCHAR 1ECA
ENCODING 7882
SWIDTH 720 0
DWIDTH 6 0
BBX 5 9 0 -2
BITMAP
F8
20
20
20
20
20
F8
00
20
ENDCHAR
STARTCHAR 1ECB
ENCODING 7883
SWIDTH 720 0
DWIDTH 6 0
BBX 5 7 0 -2
BITMAP
F8
20
20
20
F8
00
20
ENDCHAR
STARTCHAR 1ECC
ENCODING 7884
SWIDTH 720 0
DWIDTH 6 0
BBX 5 9 0 -2
BITMAP
70
88
88
88
88
88
70
00
20
ENDCHAR
STARTCHAR 1ECD
ENCODING 7885
SWIDTH 720 0
DWIDTH 6 0
BBX 5 7 0 -2
BITMAP
70
88
88
88
70
00
20
ENDCHAR
STARTCHAR 1ECE
ENCODING 7886
SWIDTH 720 0
DWIDTH 6 0
BBX 5 9 0 0
BITMAP
60
20
70
88
88
88
88
88
70
ENDCHAR
STARTCHAR 1ECF
ENCODING 7887
SWIDTH 720 0
DWIDTH 6 0
BBX 5 8 0 0
BITMAP
60
20
00
70
88
88
88
70
ENDCHAR
STARTCHAR 1ED8
ENCODING 7896
SWIDTH 720 0
DWIDTH 6 0
BBX 5 11 0 -2
BITMAP
20
50
70
88
88
88
88
88
70
00
20
ENDCHAR
STARTCHAR 1ED9
ENCODING 7897
SWIDTH 720 0
DWIDTH 6 0
BBX 5 10 0 -2
BITMAP
20
50
00
70
88
88
88
70
00
20
ENDCHAR
STARTCHAR 1EDA
ENCODING 7898
SWIDTH 720 0
DWIDTH 6 0
BBX 5 9 0 0
BITMAP
10
20
68
98
90
90
90
90
60
ENDCHAR
STARTCHAR 1EDB
ENCODING 7899
SWIDTH 720 0
DWIDTH 6 0
BBX 5 8 0 0
BITMAP
10
20
00
68
98
90
90
60
ENDCHAR
STARTCHAR 1EDC
ENCODING 7900
SWIDTH 720 0
DWIDTH 6 0
BBX 5 9 0 0
BITMAP
40
20
68
98
90
90
90
90
60
ENDCHAR
STARTCHAR 1EDD
ENCODING 7901
SWIDTH 720 0
DWIDTH 6 0
BBX 5 8 0 0
BITMAP
40
20
00
68
98
90
90
60
ENDCHAR
STARTCHAR 1EE0
ENCODING 7904
SWIDTH 720 0
DWIDTH 6 0
BBX 5 9 0 0
BITMAP
28
50
68
98
90
90
90
90
60
ENDCHAR
STARTCHAR 1EE1
ENCODING 7905
SWIDTH 720 0
DWIDTH 6 0
BBX 5 8 0 0
BITMAP
28
50
00
68
98
90
90
60
ENDCHAR
STARTCHAR 1EE2
ENCODING 7906
SWIDTH 720 0
DWIDTH 6 0
BBX 5 9 0 -2
BITMAP
68
98
90
90
90
90
60
00
20
ENDCHAR
STARTCHAR 1EE3
ENCODING 7907
SWIDTH 720 0
DWIDTH 6 0
BBX 5 7 0 -2
BITMAP
68
98
90
90
60
00
20
ENDCHAR
STARTCHAR 1EE4
ENCODING 7908
SWIDTH 720 0
DWIDTH 6 0
BBX 5 9 0 -2
BITMAP
88
88
88
88
88
88
70
00
20
ENDCHAR
STARTCHAR 1EE5
ENCODING 7909
SWIDTH 720 0
DWIDTH 6 0
BBX 5 7 0 -2
BITMAP
88
88
88
88
70
00
20
ENDCHAR
STARTCHAR 1EE6
ENCODING 7910
SWIDTH 720 0
DWIDTH 6 0
BBX 5 9 0 0
BITMAP
60
20
88
88
88
88
88
88
70
ENDCHAR
STARTCHAR 1EE7
ENCODING 7911
SWIDTH 720 0
DWIDTH 6 0
BBX 5 8 0 0
BITMAP
60
20
00
88
88
88
88
70
ENDCHAR
STARTCHAR 1EE8
ENCODING 7912
SWIDTH 720 0
DWIDTH 6 0
BBX 5 9 0 0
BITMAP
10
20
98
98
90
90
90
90
60
ENDCHAR
STARTCHAR 1EE9
ENCODING 7913
SWIDTH 720 0
DWIDTH 6 0
BBX 5 8 0 0
BITMAP
10
20
00
98
98
90
90
60
ENDCHAR
STARTCHAR 1EEA
ENCODING 7914
SWIDTH 720 0
DWIDTH 6 0
BBX 5 9 0 0
BITMAP
40
20
98
98
90
90
90
90
60
ENDCHAR
STARTCHAR 1EEB
ENCODING 7915
SWIDTH 720 0
DWIDTH 6 0
BBX 5 8 0 0
BITMAP
40
20
00
98
98
90
90
60
ENDCHAR
STARTCHAR 1EEE
ENCODING 7918
SWIDTH 720 0
DWIDTH 6 0
BBX 5 9 0 0
BITMAP
28
50
98
98
90
90
90
90
60
ENDCHAR
STARTCHAR 1EEF
ENCODING 7919
SWIDTH 720 0
DWIDTH 6 0
BBX 5 8 0 0
BITMAP
28
50
00
98
98
90
90
60
ENDCHAR
STARTCHAR 1EF0
ENCODING 7920
SWIDTH 720 0
DWIDTH 6 0
BBX 5 9 0 -2
BITMAP
98
98
90
90
90
90
60
00
20
ENDCHAR
STARTCHAR 1EF1
ENCODING 7921
SWIDTH 720 0
DWIDTH 6 0
BBX 5 7 0 -2
BITMAP
98
98
90
90
60
00
20
ENDCHAR
STARTCHAR 1EF2
ENCODING 7922
SWIDTH 720 0
DWIDTH 6 0
BBX 5 9 0 0
BITMAP
40
20
88
88
88
70
20
20
20
ENDCHAR
STARTCHAR 1EF3
ENCODING 7923
SWIDTH 720 0
DWIDTH 6 0
BBX 5 10 0 -2
BITMAP
40
20
00
88
88
50
50
20
20
C0
ENDCHAR
STARTCHAR 1EF4
ENCODING 7924
SWIDTH 720 0
DWIDTH 6 0
BBX 5 9 0 -2
BITMAP
88
88
88
70
20
20
20
00
20
ENDCHAR
STARTCHAR 1EF5
ENCODING 7925
SWIDTH 720 0
DWIDTH 6 0
BBX 5 7 0 -2
BITMAP
88
88
50
50
20
20
C8
ENDCHAR
STARTCHAR 1EF6
ENCODING 7926
SWIDTH 720 0
DWIDTH 6 0
BBX 5 9 0 0
BITMAP
60
20
88
88
88
70
20
20
20
ENDCHAR
STARTCHAR 1EF7
ENCODING 7927
SWIDTH 720 0
DWIDTH 6 0
BBX 5 10 0 -2
BITMAP
60
20
00
88
88
50
50
20
20
C0
ENDCHAR
STARTCHAR 1EF8
ENCODING 7928
SWIDTH 720 0
DWIDTH 6 0
BBX 5 9 0 0
BITMAP
28
50
88
88
88
70
20
20
20
ENDCHAR
STARTCHAR 1EF9
ENCODING 7929
SWIDTH 720 0
DWIDTH 6 0
BBX 5 10 0 -2
BITMAP
28
50
00
88
88
50
50
20
20
C0
ENDCHAR
STARTCHAR 1F74
ENCODING 8052
SWIDTH 720 0
DWIDTH 6 0
BBX 5 9 0 -1
BITMAP
40
20
00
B0
C8
88
88
88
08
ENDCHAR
STARTCHAR 1F78
ENCODING 8056
SWIDTH 720 0
DWIDTH 6 0
BBX 5 8 0 0
BITMAP
40
20
00
70
88
88
88
70
ENDCHAR
STARTCHAR 1FC6
ENCODING 8134
SWIDTH 720 0
DWIDTH 6 0
BBX 5 9 0 -1
BITMAP
28
50
00
B0
C8
88
88
88
08
ENDCHAR
STARTCHAR 1FCA
ENCODING 8138
SWIDTH 720 0
DWIDTH 6 0
BBX 5 7 0 0
BITMAP
C8
C8
48
78
48
48
48
ENDCHAR
STARTCHAR 1FF6
ENCODING 8182
SWIDTH 720 0
DWIDTH 6 0
BBX 5 8 0 0
BITMAP
28
50
00
50
88
A8
A8
50
ENDCHAR
STARTCHAR 2012
ENCODING 8210
SWIDTH 720 0
DWIDTH 6 0
BBX 5 1 0 3
BITMAP
F8
ENDCHAR
STARTCHAR 2013
ENCODING 8211
SWIDTH 720 0
DWIDTH 6 0
BBX 5 1 0 3
BITMAP
F8
ENDCHAR
STARTCHAR 2014
ENCODING 8212
SWIDTH 720 0
DWIDTH 6 0
BBX 5 1 0 3
BITMAP
F8
ENDCHAR
STARTCHAR 2015
ENCODING 8213
SWIDTH 720 0
DWIDTH 6 0
BBX 5 1 0 3
BITMAP
F8
ENDCHAR
STARTCHAR 2016
ENCODING 8214
SWIDTH 720 0
DWIDTH 6 0
BBX 3 7 1 0
BITMAP
A0
A0
A0
A0
A0
A0
A0
ENDCHAR
STARTCHAR 2017
ENCODING 8215
SWIDTH 720 0
DWIDTH 6 0
BBX 5 1 0 -1
BITMAP
F8
ENDCHAR
STARTCHAR 2018
ENCODING 8216
SWIDTH 720 0
DWIDTH 6 0
BBX 2 2 1 6
BITMAP
40
80
ENDCHAR
STARTCHAR 2019
ENCODING 8217
SWIDTH 720 0
DWIDTH 6 0
BBX 2 2 1 6
BITMAP
80
40
ENDCHAR
STARTCHAR 201A
ENCODING 8218
SWIDTH 720 0
DWIDTH 6 0
BBX 2 2 1 -1
BITMAP
80
40
ENDCHAR
STARTCHAR 201B
ENCODING 8219
SWIDTH 720 0
DWIDTH 6 0
BBX 2 2 1 6
BITMAP
80
40
ENDCHAR
STARTCHAR 201C
ENCODING 8220
SWIDTH 720 0
DWIDTH 6 0
BBX 5 2 0 6
BITMAP
48
90
ENDCHAR
STARTCHAR 201D
ENCODING 8221
SWIDTH 720 0
DWIDTH 6 0
BBX 5 2 0 6
BITMAP
90
48
ENDCHAR
STARTCHAR 201E
ENCODING 8222
SWIDTH 720 0
DWIDTH 6 0
BBX 5 2 0 -1
BITMAP
90
48
ENDCHAR
STARTCHAR 201F
ENCODING 8223
SWIDTH 720 0
DWIDTH 6 0
BBX 5 2 0 6
BITMAP
90
48
ENDCHAR
STARTCHAR 2020
ENCODING 8224
SWIDTH 720 0
DWIDTH 6 0
BBX 5 9 0 -1
BITMAP
20
20
F8
20
20
20
20
20
20
ENDCHAR
STARTCHAR 2021
ENCODING 8225
SWIDTH 720 0
DWIDTH 6 0
BBX 5 9 0 -1
BITMAP
20
20
F8
20
20
20
F8
20
20
ENDCHAR
STARTCHAR 2022
ENCODING 8226
SWIDTH 720 0
DWIDTH 6 0
BBX 3 3 1 2
BITMAP
E0
E0
E0
ENDCHAR
STARTCHAR 2026
ENCODING 8230
SWIDTH 720 0
DWIDTH 6 0
BBX 5 1 0 0
BITMAP
A8
ENDCHAR
STARTCHAR 2030
ENCODING 8240
SWIDTH 720 0
DWIDTH 6 0
BBX 5 7 0 0
BITMAP
C8
C8
10
20
40
A8
A8
ENDCHAR
STARTCHAR 2032
ENCODING 8242
SWIDTH 720 0
DWIDTH 6 0
BBX 1 2 2 5
BITMAP
80
80
ENDCHAR
STARTCHAR 2033
ENCODING 8243
SWIDTH 720 0
DWIDTH 6 0
BBX 3 2 1 5
BITMAP
A0
A0
ENDCHAR
STARTCHAR 2034
ENCODING 8244
SWIDTH 720 0
DWIDTH 6 0
BBX 5 2 0 5
BITMAP
A8
A8
ENDCHAR
STARTCHAR 2039
ENCODING 8249
SWIDTH 720 0
DWIDTH 6 0
BBX 5 5 0 0
BITMAP
18
60
80
60
18
ENDCHAR
STARTCHAR 203A
ENCODING 8250
SWIDTH 720 0
DWIDTH 6 0
BBX 5 5 0 0
BITMAP
C0
30
08
30
C0
ENDCHAR
STARTCHAR 203C
ENCODING 8252
SWIDTH 720 0
DWIDTH 6 0
BBX 3 7 1 0
BITMAP
A0
A0
A0
A0
A0
00
A0
ENDCHAR
STARTCHAR 2044
ENCODING 8260
SWIDTH 720 0
DWIDTH 6 0
BBX 5 7 0 0
BITMAP
08
08
10
20
40
80
80
ENDCHAR
STARTCHAR 205E
ENCODING 8286
SWIDTH 720 0
DWIDTH 6 0
BBX 1 7 2 0
BITMAP
80
00
80
00
80
00
80
ENDCHAR
STARTCHAR 20A0
ENCODING 8352
SWIDTH 720 0
DWIDTH 6 0
BBX 5 7 0 0
BITMAP
60
80
B8
A0
78
20
38
ENDCHAR
STARTCHAR 20A2
ENCODING 8354
SWIDTH 720 0
DWIDTH 6 0
BBX 5 7 0 0
BITMAP
70
88
80
B0
A0
A8
70
ENDCHAR
STARTCHAR 20A3
ENCODING 8355
SWIDTH 720 0
DWIDTH 6 0
BBX 5 7 0 0
BITMAP
78
40
40
70
40
E0
40
ENDCHAR
STARTCHAR 20A4
ENCODING 8356
SWIDTH 720 0
DWIDTH 6 0
BBX 5 7 0 0
BITMAP
30
48
E0
40
E0
40
F8
ENDCHAR
STARTCHAR 20AC
ENCODING 8364
SWIDTH 720 0
DWIDTH 6 0
BBX 5 7 0 0
BITMAP
38
40
F0
40
F0
40
38
ENDCHAR
STARTCHAR 20AD
ENCODING 8365
SWIDTH 720 0
DWIDTH 6 0
BBX 6 7 -1 0
BITMAP
44
48
50
FC
50
48
44
ENDCHAR
STARTCHAR 20B3
ENCODING 8371
SWIDTH 720 0
DWIDTH 6 0
BBX 5 7 0 0
BITMAP
20
50
F8
50
F8
50
88
ENDCHAR
STARTCHAR 20B5
ENCODING 8373
SWIDTH 720 0
DWIDTH 6 0
BBX 5 9 0 -1
BITMAP
20
70
A8
A0
A0
A0
A8
70
20
ENDCHAR
STARTCHAR 20B6
ENCODING 8374
SWIDTH 720 0
DWIDTH 6 0
BBX 5 7 0 0
BITMAP
50
50
F8
50
50
50
58
ENDCHAR
STARTCHAR 20B8
ENCODING 8376
SWIDTH 720 0
DWIDTH 6 0
BBX 5 7 0 0
BITMAP
F8
00
F8
20
20
20
20
ENDCHAR
STARTCHAR 20B9
ENCODING 8377
SWIDTH 720 0
DWIDTH 6 0
BBX 4 6 1 0
BITMAP
E0
F0
20
C0
20
10
ENDCHAR
STARTCHAR 20BA
ENCODING 8378
SWIDTH 720 0
DWIDTH 6 0
BBX 5 7 0 0
BITMAP
40
60
C0
60
C0
48
70
ENDCHAR
STARTCHAR 20BC
ENCODING 8380
SWIDTH 720 0
DWIDTH 6 0
BBX 5 6 0 0
BITMAP
20
70
A8
A8
A8
A8
ENDCHAR
STARTCHAR 20BD
ENCODING 8381
SWIDTH 720 0
DWIDTH 6 0
BBX 6 7 -1 0
BITMAP
78
44
44
F8
40
F0
40
ENDCHAR
STARTCHAR 20BE
ENCODING 8382
SWIDTH 720 0
DWIDTH 6 0
BBX 5 7 0 0
BITMAP
50
70
88
80
80
40
F8
ENDCHAR
STARTCHAR 20BF
ENCODING 8383
SWIDTH 720 0
DWIDTH 6 0
BBX 6 9 -1 -1
BITMAP
28
F8
44
44
78
44
44
F8
28
ENDCHAR
STARTCHAR 2116
ENCODING 8470
SWIDTH 720 0
DWIDTH 6 0
BBX 5 6 0 0
BITMAP
A0
B8
A8
B8
00
18
ENDCHAR
STARTCHAR 2122
ENCODING 8482
SWIDTH 720 0
DWIDTH 6 0
BBX 5 8 0 0
BITMAP
F8
20
20
20
88
D8
A8
88
ENDCHAR
STARTCHAR 2126
ENCODING 8486
SWIDTH 720 0
DWIDTH 6 0
BBX 5 7 0 0
BITMAP
70
88
88
88
88
50
D8
ENDCHAR
STARTCHAR 2190
ENCODING 8592
SWIDTH 720 0
DWIDTH 6 0
BBX 5 5 0 1
BITMAP
20
40
F8
40
20
ENDCHAR
STARTCHAR 2191
ENCODING 8593
SWIDTH 720 0
DWIDTH 6 0
BBX 5 5 0 1
BITMAP
20
70
A8
20
20
ENDCHAR
STARTCHAR 2192
ENCODING 8594
SWIDTH 720 0
DWIDTH 6 0
BBX 5 5 0 1
BITMAP
20
10
F8
10
20
ENDCHAR
STARTCHAR 2193
ENCODING 8595
SWIDTH 720 0
DWIDTH 6 0
BBX 5 5 0 1
BITMAP
20
20
A8
70
20
ENDCHAR
STARTCHAR 220F
ENCODING 8719
SWIDTH 720 0
DWIDTH 6 0
BBX 5 7 0 0
BITMAP
F8
88
88
88
88
88
88
ENDCHAR
STARTCHAR 2212
ENCODING 8722
SWIDTH 720 0
DWIDTH 6 0
BBX 5 1 0 3
BITMAP
F8
ENDCHAR
STARTCHAR 2215
ENCODING 8725
SWIDTH 720 0
DWIDTH 6 0
BBX 5 7 0 0
BITMAP
08
08
10
20
40
80
80
ENDCHAR
STARTCHAR 2219
ENCODING 8729
SWIDTH 720 0
DWIDTH 6 0
BBX 1 1 2 3
BITMAP
80
ENDCHAR
STARTCHAR 221A
ENCODING 8730
SWIDTH 720 0
DWIDTH 6 0
BBX 5 7 0 0
BITMAP
08
08
88
50
50
20
20
ENDCHAR
STARTCHAR 221E
ENCODING 8734
SWIDTH 720 0
DWIDTH 6 0
BBX 5 3 0 2
BITMAP
50
A8
50
ENDCHAR
STARTCHAR 221F
ENCODING 8735
SWIDTH 720 0
DWIDTH 6 0
BBX 5 5 0 0
BITMAP
80
80
80
80
F8
ENDCHAR
STARTCHAR 2220
ENCODING 8736
SWIDTH 720 0
DWIDTH 6 0
BBX 5 5 0 0
BITMAP
08
10
20
40
F8
ENDCHAR
STARTCHAR 2248
ENCODING 8776
SWIDTH 720 0
DWIDTH 6 0
BBX 5 6 0 0
BITMAP
40
A8
10
40
A8
10
ENDCHAR
STARTCHAR 2260
ENCODING 8800
SWIDTH 720 0
DWIDTH 6 0
BBX 5 6 0 0
BITMAP
10
F8
20
F8
40
40
ENDCHAR
STARTCHAR 2261
ENCODING 8801
SWIDTH 720 0
DWIDTH 6 0
BBX 5 5 0 1
BITMAP
F8
00
F8
00
F8
ENDCHAR
STARTCHAR 2264
ENCODING 8804
SWIDTH 720 0
DWIDTH 6 0
BBX 5 7 0 0
BITMAP
38
40
80
40
38
00
F8
ENDCHAR
STARTCHAR 2265
ENCODING 8805
SWIDTH 720 0
DWIDTH 6 0
BBX 5 7 0 0
BITMAP
E0
10
08
10
E0
00
F8
ENDCHAR
STARTCHAR 22EE
ENCODING 8942
SWIDTH 720 0
DWIDTH 6 0
BBX 1 5 2 1
BITMAP
80
00
80
00
80
ENDCHAR
STARTCHAR 22EF
ENCODING 8943
SWIDTH 720 0
DWIDTH 6 0
BBX 5 1 0 3
BITMAP
A8
ENDCHAR
STARTCHAR 25B2
ENCODING 9650
SWIDTH 720 0
DWIDTH 6 0
BBX 5 5 0 1
BITMAP
20
70
70
F8
F8
ENDCHAR
STARTCHAR 25BA
ENCODING 9658
SWIDTH 720 0
DWIDTH 6 0
BBX 5 5 0 1
BITMAP
C0
F0
F8
F0
C0
ENDCHAR
STARTCHAR 25BC
ENCODING 9660
SWIDTH 720 0
DWIDTH 6 0
BBX 5 5 0 1
BITMAP
F8
F8
70
70
20
ENDCHAR
STARTCHAR 25C4
ENCODING 9668
SWIDTH 720 0
DWIDTH 6 0
BBX 5 5 0 1
BITMAP
18
78
F8
78
18
ENDCHAR
STARTCHAR 25CF
ENCODING 9679
SWIDTH 720 0
DWIDTH 6 0
BBX 5 5 0 1
BITMAP
20
70
F8
70
20
ENDCHAR
STARTCHAR 2621
ENCODING 9761
SWIDTH 720 0
DWIDTH 6 0
BBX 5 7 0 0
BITMAP
30
30
50
50
90
90
98
ENDCHAR
STARTCHAR 263B
ENCODING 9787
SWIDTH 720 0
DWIDTH 6 0
BBX 5 5 0 1
BITMAP
70
A8
F8
88
70
ENDCHAR
STARTCHAR A78B
ENCODING 42891
SWIDTH 720 0
DWIDTH 6 0
BBX 1 5 2 2
BITMAP
80
80
80
80
80
ENDCHAR
STARTCHAR A78C
ENCODING 42892
SWIDTH 720 0
DWIDTH 6 0
BBX 1 4 2 3
BITMAP
80
80
80
80
ENDCHAR
STARTCHAR FB01
ENCODING 64257
SWIDTH 720 0
DWIDTH 6 0
BBX 5 7 0 0
BITMAP
60
40
E8
48
48
48
48
ENDCHAR
STARTCHAR FB02
ENCODING 64258
SWIDTH 720 0
DWIDTH 6 0
BBX 5 7 0 0
BITMAP
68
48
E8
48
48
48
48
ENDCHAR
ENDFONT
